<?xml version='1.0' encoding='utf-8'?>
<svg xmlns="http://www.w3.org/2000/svg" width="1920" height="1080" viewBox="0 0 1920 1080" data-theme="light">
  <style>
        @font-face {
            font-family: 'Inter';
            src: url('assets/fonts/Inter-Regular.ttf') format('truetype');
            font-weight: 400;
            font-style: normal;
            font-display: swap;
        }
        @font-face {
            font-family: 'Inter';
            src: url('assets/fonts/Inter-Bold.ttf') format('truetype');
            font-weight: 600;
            font-style: normal;
            font-display: swap;
        }
        @font-face {
            font-family: 'Inter';
            src: url('assets/fonts/Inter-Bold.ttf') format('truetype');
            font-weight: 800;
            font-style: normal;
            font-display: swap;
        }
        
:root {
    --background: #f8fafc;
    --panel: #ffffff;
    --primary-text: #0f172a;
    --muted-text: #64748b;
    --inverse-text: #ffffff;
    --border: #e2e8f0;
    --shadow-color: #000000;
    --icon-pad-bg: #1e293b;
    --art-glow: #0891b2;
    --art-glow-opacity: 0.10;
    --art-sheen: #ffffff;
    --art-sheen-opacity: 0.34;
    --art-shadow: #0f172a;
    --art-shadow-opacity: 0.14;
    --art-muted-line: #94a3b8;
    --art-panel-tint: #f1f5f9;
    --font-family: 'Inter', 'Segoe UI', 'Kalam', Roboto, Helvetica, Arial, sans-serif;
    --radius-xl: 16px;
    --font-family-headline: 'Inter', 'Segoe UI', 'Kalam', Roboto, Helvetica, Arial, sans-serif;
    --font-family-body: 'Inter', 'Segoe UI', 'Kalam', Roboto, Helvetica, Arial, sans-serif;
    --font-heading: 'Inter', 'Segoe UI', 'Kalam', Roboto, Helvetica, Arial, sans-serif;
    --font-body: 'Inter', 'Segoe UI', 'Kalam', Roboto, Helvetica, Arial, sans-serif;
    --font-size-h1: 56px;
    --font-size-h2: 40px;
    --font-size-h3: 28px;
    --font-size-body: 24px;
    --font-size-caption: 18px;
    --secondary-text: var(--muted-text);
    --panel-border: var(--border);
    --font-weight-normal: 400;
    --font-weight-medium: 500;
    --font-weight-semibold: 600;
    --font-weight-bold: 700;
    --spacing-gutter-pct: 0.07;
    --spacing-top-pct: 0.15;
    --spacing-bottom-pct: 0.07;
    --spacing-title-y-pct: 0.055;
    --accent-1: #0891b2;
    --accent-2: #0284c7;
    --accent-3: #2563eb;
    --accent-4: #4f46e5;
    --accent-5: #7c3aed;
    --accent-6: #0d9488;
}
:root[data-theme="dark"] {
    --background: #0f172a;
    --panel: #1e293b;
    --primary-text: #f1f5f9;
    --muted-text: #94a3b8;
    --inverse-text: #0f172a;
    --border: #334155;
    --shadow-color: #000000;
    --icon-pad-bg: #1e293b;
    --art-glow: #7dd3fc;
    --art-glow-opacity: 0.18;
    --art-sheen: #ffffff;
    --art-sheen-opacity: 0.18;
    --art-shadow: #000000;
    --art-shadow-opacity: 0.28;
    --art-muted-line: #64748b;
    --art-panel-tint: #1e293b;
    --accent-1: #22d3ee;
    --accent-2: #38bdf8;
    --accent-3: #60a5fa;
    --accent-4: #818cf8;
    --accent-5: #a78bfa;
    --accent-6: #2dd4bf;
}
:root[data-theme="light"] {
    --background: #f8fafc;
    --panel: #ffffff;
    --primary-text: #0f172a;
    --muted-text: #64748b;
    --inverse-text: #ffffff;
    --border: #e2e8f0;
    --shadow-color: #000000;
    --icon-pad-bg: #1e293b;
    --art-glow: #0891b2;
    --art-glow-opacity: 0.10;
    --art-sheen: #ffffff;
    --art-sheen-opacity: 0.34;
    --art-shadow: #0f172a;
    --art-shadow-opacity: 0.14;
    --art-muted-line: #94a3b8;
    --art-panel-tint: #f1f5f9;
    --accent-1: #0891b2;
    --accent-2: #0284c7;
    --accent-3: #2563eb;
    --accent-4: #4f46e5;
    --accent-5: #7c3aed;
    --accent-6: #0d9488;
}</style>
  <rect x="0" y="0" width="1.92E+3" height="1.08E+3" fill="#252a34" stroke="none" id="programmatic_background"/>
  <line id="HEADER_DECOR" x1="960.0" x2="1080.0" y1="125.0" y2="125.0" stroke="var(--accent-1)" stroke-width="6" stroke-linecap="round"/>
  <defs>
    <pattern id="svg464e950f-napkin-hatch" patternUnits="userSpaceOnUse" width="12" height="12">
      <path d="M -3 12 L 12 -3 M 0 15 L 15 0" fill="none" stroke="var(--primary-text)" stroke-width="1" stroke-opacity="0.05"/>
    </pattern>
    <filter id="svg464e950f-shadow" x="-30%" y="-30%" width="160%" height="160%">
      <feDropShadow dx="0" dy="3" stdDeviation="6" flood-color="#000000" flood-opacity="0.10"/>
      <feDropShadow dx="0" dy="8" stdDeviation="12" flood-color="#000000" flood-opacity="0.16"/>
    </filter>
    <marker id="svg464e950f-arrowhead" markerWidth="12" markerHeight="12" refX="10" refY="6" orient="auto">
      <path d="M 0 0 L 12 6 L 0 12 Z" fill="var(--muted-text)"/>
    </marker>
    <radialGradient id="svg464e950f-universal-edge-vignette" cx="50%" cy="50%" r="72%">
      <stop offset="0%" stop-color="var(--background)" stop-opacity="0"/>
      <stop offset="72%" stop-color="var(--background)" stop-opacity="0.12"/>
      <stop offset="100%" stop-color="var(--primary-text)" stop-opacity="0.08"/>
    </radialGradient>
    <linearGradient id="svg464e950f-universal-surface-sheen" x1="0%" y1="0%" x2="100%" y2="100%">
      <stop offset="0%" stop-color="var(--art-sheen)" stop-opacity="var(--art-sheen-opacity)"/>
      <stop offset="46%" stop-color="var(--art-sheen)" stop-opacity="0.035"/>
      <stop offset="100%" stop-color="var(--art-panel-tint)" stop-opacity="0.14"/>
    </linearGradient>
    <radialGradient id="svg464e950f-universal-icon-aura" cx="50%" cy="42%" r="64%">
      <stop offset="0%" stop-color="var(--art-glow)" stop-opacity="var(--art-glow-opacity)"/>
      <stop offset="100%" stop-color="var(--background)" stop-opacity="0"/>
    </radialGradient>
    <filter id="svg464e950f-text-glow" x="-20%" y="-20%" width="140%" height="140%">
      <feDropShadow dx="0" dy="0" stdDeviation="2" flood-color="#000000" flood-opacity="0.4"/>
    </filter>
  </defs>
  <rect width="100%" height="100%" fill="var(--background)" id="CANVAS_BG"/>
  <rect width="100%" height="100%" fill="url(#svg464e950f-napkin-hatch)"/>
  <rect id="UNIVERSAL_EDGE_VIGNETTE" width="100%" height="100%" fill="url(#svg464e950f-universal-edge-vignette)" opacity="0.62"/>
  <text id="TITLE" x="960.0" y="59" text-anchor="middle" font-size="58" font-weight="800" fill="#0f172a" style="font-size: 60px; font-family: Inter, Segoe UI, Kalam, Roboto, Helvetica, Arial, sans-serif; font-weight: 700; letter-spacing:-1.2px;" data-final-font-size="60">
    <tspan x="960.0" dy="68.00px">The Tone Pivot Mechanism</tspan>
  </text>
  <rect id="TITLE_FRAME" x="134" y="56" width="1652" height="98" fill="none"/>
  <rect x="120" y="165" width="1680" height="820" rx="40" fill="var(--panel)" fill-opacity="0.22" stroke="var(--muted-text)" stroke-width="2.4" opacity="0.92"/>
  <path d="M 262.0 287.0 Q 311.0 287.0 360.0 447.0 Q 409.0 447.0 458.0 607.0 Q 507.0 607.0 556.0 767.0" fill="none" stroke="var(--muted-text)" stroke-width="10" stroke-linecap="round" stroke-linejoin="round" opacity="0.36" marker-end="url(#svg464e950f-arrowhead)"/>
  <g id="DIAGRAM_MAIN" transform="translate(-60 -20) scale(1.08)">
    <g filter="url(#svg464e950f-shadow)">
      <rect id="ITEM_1_BG" x="180.0" y="210.0" width="1030" height="176" rx="24" fill="var(--panel)" fill-opacity="0.97" stroke="var(--accent-1)" stroke-width="2.5"/>
      <rect x="180.0" y="210.0" width="1030" height="18" rx="9" fill="var(--accent-1)" fill-opacity="0.55"/>
      <circle id="ITEM_1_PAD" cx="262.0" cy="287.0" r="40" fill="var(--icon-pad-bg)" opacity="0.95" fill-opacity="0.9" stroke-width="2" stroke="var(--primary-text)"/>
      <circle id="ITEM_1_PAD_INNER" cx="262.0" cy="287.0" r="31.20" fill="var(--accent-3)" fill-opacity="0.22"/>
      <circle cx="262.0" cy="287.0" r="32" fill="none" stroke="var(--accent-1)" stroke-width="3" stroke-dasharray="6 4"/>
      <g id="ITEM_1_ICON" transform="translate(232.0, 257.0)" data-icon-size="60" stroke-dasharray="6 4">
        <g transform="translate(-5.65714285714286,-5.6571428571428575) scale(2.2285714285714286)">
          <path d="M26.18 19.61C28.2345 19.61 29.9 17.9445 29.9 15.89C29.9 13.8355 28.2345 12.17 26.18 12.17C24.1255 12.17 22.46 13.8355 22.46 15.89C22.46 17.9445 24.1255 19.61 26.18 19.61Z" fill="#212121"/>
          <path d="M10.9999 11L11.6799 9.99997C12.9299 9.99997 14.1699 9.70997 15.2899 9.16997L21.5499 6.08997V25.71L15.2899 22.63C14.1699 22.08 12.9299 21.79 11.6799 21.79L10.9999 20V11ZM6.21586 29.0083H8.78989C9.45989 29.0083 9.99989 28.4683 9.99989 27.7983V19.89H5.00586V27.7983C5.00586 28.4683 5.54586 29.0083 6.21586 29.0083Z" fill="#D3D3D3"/>
          <path d="M24.07 3C22.38 3 21 4.37 21 6.07V25.72C21 27.41 22.37 28.79 24.07 28.79C25.76 28.79 27.14 27.42 27.14 25.72V6.07C27.13 4.37 25.76 3 24.07 3Z" fill="#F8312F"/>
          <path d="M3.72662 10H12V21.78H3.72662C2.77081 21.78 2 21.03 2 20.11V11.68C2 10.75 2.77081 10 3.72662 10Z" fill="#CA0B4A"/>
        </g>
      </g>
      <rect x="335.0" y="238.0" width="740.0" height="24" rx="12" fill="var(--accent-1)" fill-opacity="0.08"/>
      <text x="1176.0" y="252.0" text-anchor="end" font-size="17" font-weight="800" fill="var(--accent-1)" opacity="0.72">01</text>
      <text id="ITEM_1_HEAD" x="348.0" y="228.0" text-anchor="start" font-weight="800" font-size="30" fill="var(--accent-3)" data-bg-id="ITEM_1_BG" fill-opacity="1.0" style="font-size: 30px; font-family: Inter, Segoe UI, Kalam, Roboto, Helvetica, Arial, sans-serif; font-weight: 700; letter-spacing:-0.4px;" data-final-font-size="30">
        <tspan x="348.0" dy="25.25px">Speaker Claims</tspan>
      </text>
      <rect id="ITEM_1_HEAD_FRAME" x="348.0" y="228.0" width="670.0" height="34" fill="none"/>
      <text id="ITEM_1_BODY" x="348.0" y="270.0" text-anchor="start" font-size="23" fill="var(--primary-text)" data-bg-id="ITEM_1_BG" style="font-size: 26px; font-family: Inter, Segoe UI, Kalam, Roboto, Helvetica, Arial, sans-serif; font-weight: 400;" data-final-font-size="26">
        <tspan x="348.0" dy="33.62px">Person offers evidence and reasons for a point</tspan>
      </text>
      <rect id="ITEM_1_BODY_FRAME" x="348.0" y="270.0" width="780.0" height="94.0" fill="none"/>
    </g>
    <g filter="url(#svg464e950f-shadow)">
      <rect id="ITEM_2_BG" x="278.0" y="370.0" width="1030" height="176" rx="24" fill="var(--panel)" fill-opacity="0.97" stroke="var(--accent-2)" stroke-width="2.5"/>
      <rect x="278.0" y="370.0" width="1030" height="18" rx="9" fill="var(--accent-2)" fill-opacity="0.55"/>
      <circle id="ITEM_2_PAD" cx="360.0" cy="447.0" r="40" fill="var(--icon-pad-bg)" opacity="0.95" fill-opacity="0.9" stroke-width="2" stroke="var(--primary-text)"/>
      <circle id="ITEM_2_PAD_INNER" cx="360.0" cy="447.0" r="31.20" fill="var(--accent-4)" fill-opacity="0.22"/>
      <circle cx="360.0" cy="447.0" r="32" fill="none" stroke="var(--accent-2)" stroke-width="3" stroke-dasharray="6 4"/>
      <g id="ITEM_2_ICON" transform="translate(330.0, 417.0)" data-icon-size="60" stroke-dasharray="6 4">
        <g transform="translate(-11.600000000000003,-11.600000000000003) scale(3.466666666666667)" vector-effect="non-scaling-stroke" stroke-width="2.43" stroke-linecap="round" stroke-linejoin="round" stroke-opacity="1.0">
          <path d="M4 18v-12a2 2 0 0 1 2 -2h12a2 2 0 0 1 2 2v12a2 2 0 0 1 -2 2h-12a2 2 0 0 1 -2 -2z" vector-effect="non-scaling-stroke" fill="none" stroke="#f1f5f9"/>
          <path d="M7 14l3 -3l2 2l3 -3l2 2" vector-effect="non-scaling-stroke" fill="none" stroke="#f1f5f9"/>
        </g>
      </g>
      <rect x="433.0" y="398.0" width="740.0" height="24" rx="12" fill="var(--accent-2)" fill-opacity="0.08"/>
      <text x="1274.0" y="412.0" text-anchor="end" font-size="17" font-weight="800" fill="var(--accent-2)" opacity="0.72">02</text>
      <text id="ITEM_2_HEAD" x="446.0" y="388.0" text-anchor="start" font-weight="800" font-size="30" fill="var(--accent-4)" data-bg-id="ITEM_2_BG" fill-opacity="1.0" style="font-size: 30px; font-family: Inter, Segoe UI, Kalam, Roboto, Helvetica, Arial, sans-serif; font-weight: 700; letter-spacing:-0.4px;" data-final-font-size="30">
        <tspan x="446.0" dy="25.25px">Listener Shifts</tspan>
      </text>
      <rect id="ITEM_2_HEAD_FRAME" x="446.0" y="388.0" width="670.0" height="34" fill="none"/>
      <text id="ITEM_2_BODY" x="446.0" y="430.0" text-anchor="start" font-size="23" fill="var(--primary-text)" data-bg-id="ITEM_2_BG" style="font-size: 26px; font-family: Inter, Segoe UI, Kalam, Roboto, Helvetica, Arial, sans-serif; font-weight: 400;" data-final-font-size="26">
        <tspan x="446.0" dy="33.62px">Focus moves from claim to speaker's emotional state</tspan>
      </text>
      <rect id="ITEM_2_BODY_FRAME" x="446.0" y="430.0" width="780.0" height="94.0" fill="none"/>
    </g>
    <g filter="url(#svg464e950f-shadow)">
      <rect id="ITEM_3_BG" x="376.0" y="530.0" width="1030" height="176" rx="24" fill="var(--panel)" fill-opacity="0.97" stroke="var(--accent-3)" stroke-width="2.5"/>
      <rect x="376.0" y="530.0" width="1030" height="18" rx="9" fill="var(--accent-3)" fill-opacity="0.55"/>
      <circle id="ITEM_3_PAD" cx="458.0" cy="607.0" r="40" fill="var(--icon-pad-bg)" opacity="0.95" fill-opacity="0.9" stroke-width="2" stroke="var(--primary-text)"/>
      <circle id="ITEM_3_PAD_INNER" cx="458.0" cy="607.0" r="31.20" fill="var(--accent-5)" fill-opacity="0.22"/>
      <circle cx="458.0" cy="607.0" r="32" fill="none" stroke="var(--accent-3)" stroke-width="3" stroke-dasharray="6 4"/>
      <g id="ITEM_3_ICON" transform="translate(428.0, 577.0)" data-icon-size="60" stroke-dasharray="6 4">
        <g transform="translate(-3.844067796610173,-3.844067796610173) scale(2.820338983050848)" vector-effect="non-scaling-stroke" stroke-width="2.43" stroke-linecap="round" stroke-linejoin="round" stroke-opacity="1.0">
          <path d="m2 2 20 20" vector-effect="non-scaling-stroke" fill="none" stroke="#f1f5f9"/>
          <path d="M8.35 2.69A10 10 0 0 1 21.3 15.65" vector-effect="non-scaling-stroke" fill="none" stroke="#f1f5f9"/>
          <path d="M19.08 19.08A10 10 0 1 1 4.92 4.92" vector-effect="non-scaling-stroke" fill="none" stroke="#f1f5f9"/>
        </g>
      </g>
      <rect x="531.0" y="558.0" width="740.0" height="24" rx="12" fill="var(--accent-3)" fill-opacity="0.08"/>
      <text x="1372.0" y="572.0" text-anchor="end" font-size="17" font-weight="800" fill="var(--accent-3)" opacity="0.72">03</text>
      <text id="ITEM_3_HEAD" x="544.0" y="548.0" text-anchor="start" font-weight="800" font-size="30" fill="var(--accent-5)" data-bg-id="ITEM_3_BG" fill-opacity="1.0" style="font-size: 30px; font-family: Inter, Segoe UI, Kalam, Roboto, Helvetica, Arial, sans-serif; font-weight: 700; letter-spacing:-0.4px;" data-final-font-size="30">
        <tspan x="544.0" dy="25.25px">Evidence Ignored</tspan>
      </text>
      <rect id="ITEM_3_HEAD_FRAME" x="544.0" y="548.0" width="670.0" height="34" fill="none"/>
      <text id="ITEM_3_BODY" x="544.0" y="590.0" text-anchor="start" font-size="23" fill="var(--primary-text)" data-bg-id="ITEM_3_BG" style="font-size: 26px; font-family: Inter, Segoe UI, Kalam, Roboto, Helvetica, Arial, sans-serif; font-weight: 400;" data-final-font-size="26">
        <tspan x="544.0" dy="33.62px">Original data receives little or no examination</tspan>
      </text>
      <rect id="ITEM_3_BODY_FRAME" x="544.0" y="590.0" width="780.0" height="94.0" fill="none"/>
    </g>
    <g filter="url(#svg464e950f-shadow)">
      <rect id="ITEM_4_BG" x="474.0" y="690.0" width="1030" height="176" rx="24" fill="var(--panel)" fill-opacity="0.97" stroke="var(--accent-4)" stroke-width="2.5"/>
      <rect x="474.0" y="690.0" width="1030" height="18" rx="9" fill="var(--accent-4)" fill-opacity="0.55"/>
      <circle id="ITEM_4_PAD" cx="556.0" cy="767.0" r="40" fill="var(--icon-pad-bg)" opacity="0.95" fill-opacity="0.9" stroke-width="2" stroke="var(--primary-text)"/>
      <circle id="ITEM_4_PAD_INNER" cx="556.0" cy="767.0" r="31.20" fill="var(--accent-6)" fill-opacity="0.22"/>
      <circle cx="556.0" cy="767.0" r="32" fill="none" stroke="var(--accent-4)" stroke-width="3" stroke-dasharray="6 4"/>
      <g id="ITEM_4_ICON" transform="translate(526.0, 737.0)" data-icon-size="60" stroke-dasharray="6 4">
        <g transform="translate(-4.427586206896555,-4.427586206896555) scale(0.13448275862068967)" vector-effect="non-scaling-stroke" fill="#f1f5f9" fill-opacity="1.0" stroke="none">
          <path fill="#f1f5f9" d="M165.262 25.154c-38.376 0-73.092 6.462-97.408 16.405c-12.159 4.97-21.669 10.834-27.706 16.67c-6.036 5.835-8.459 11.144-8.459 16.218c0 5.075 2.423 10.384 8.46 16.219c6.036 5.835 15.546 11.699 27.705 16.67c24.316 9.942 59.032 16.404 97.408 16.404c.162 0 .32-.006.482-.006l-38.95 108.504l88.065-112.265c18.283-2.87 34.592-7.232 47.81-12.637c12.16-4.971 21.671-10.835 27.708-16.67s8.459-11.144 8.459-16.219c0-5.074-2.422-10.383-8.46-16.219c-6.036-5.835-15.548-11.698-27.706-16.67c-24.316-9.942-59.032-16.404-97.408-16.404m183.797 94.815c-38.377 0-73.092 6.462-97.409 16.404c-12.158 4.971-21.668 10.835-27.705 16.67s-8.459 11.144-8.459 16.219c0 5.074 2.423 10.385 8.46 16.22c6.036 5.836 15.546 11.697 27.704 16.668a162 162 0 0 0 9.819 3.631l82.965 105.764l-34.2-95.274c12.3 1.47 25.327 2.284 38.825 2.284c38.376 0 73.091-6.462 97.408-16.405c12.158-4.97 21.67-10.832 27.707-16.668s8.459-11.146 8.459-16.22c0-5.075-2.423-10.384-8.46-16.219c-6.036-5.835-15.548-11.699-27.706-16.67c-24.317-9.942-59.032-16.404-97.408-16.404M96 249c-25.37 0-47 23.91-47 55s21.63 55 47 55s47-23.91 47-55s-21.63-55-47-55m320 0c-25.37 0-47 23.91-47 55s21.63 55 47 55s47-23.91 47-55s-21.63-55-47-55M58.166 363.348c-7.084 8.321-13.03 19.258-17.738 31.812c-10.33 27.544-14.433 62.236-15.131 91.84h141.406c-.698-29.604-4.802-64.296-15.13-91.84c-4.709-12.554-10.655-23.49-17.739-31.812C123.246 371.9 110.235 377 96 377s-27.246-5.1-37.834-13.652m320 0c-7.084 8.321-13.03 19.258-17.738 31.812c-10.33 27.544-14.433 62.236-15.131 91.84h141.406c-.698-29.604-4.802-64.296-15.13-91.84c-4.709-12.554-10.655-23.49-17.739-31.812C443.246 371.9 430.235 377 416 377s-27.246-5.1-37.834-13.652" vector-effect="non-scaling-stroke" stroke="none"/>
        </g>
      </g>
      <rect x="629.0" y="718.0" width="740.0" height="24" rx="12" fill="var(--accent-4)" fill-opacity="0.08"/>
      <text x="1470.0" y="732.0" text-anchor="end" font-size="17" font-weight="800" fill="var(--accent-4)" opacity="0.72">04</text>
      <text id="ITEM_4_HEAD" x="642.0" y="708.0" text-anchor="start" font-weight="800" font-size="30" fill="var(--primary-text)" data-bg-id="ITEM_4_BG" fill-opacity="1.0" style="font-size: 30px; font-family: Inter, Segoe UI, Kalam, Roboto, Helvetica, Arial, sans-serif; font-weight: 700; letter-spacing:-0.4px;" data-final-font-size="30">
        <tspan x="642.0" dy="25.25px">Discussion Derails</tspan>
      </text>
      <rect id="ITEM_4_HEAD_FRAME" x="642.0" y="708.0" width="670.0" height="34" fill="none"/>
      <text id="ITEM_4_BODY" x="642.0" y="750.0" text-anchor="start" font-size="23" fill="var(--primary-text)" data-bg-id="ITEM_4_BG" style="font-size: 26px; font-family: Inter, Segoe UI, Kalam, Roboto, Helvetica, Arial, sans-serif; font-weight: 400;" data-final-font-size="26">
        <tspan x="642.0" dy="33.62px">Talk centers on etiquette rather than truth</tspan>
      </text>
      <rect id="ITEM_4_BODY_FRAME" x="642.0" y="750.0" width="780.0" height="94.0" fill="none"/>
    </g>
  </g>
</svg>
