<?xml version='1.0' encoding='utf-8'?>
<svg xmlns="http://www.w3.org/2000/svg" width="1920" height="1080" viewBox="0 0 1920 1080" data-theme="light">
  <style>
        @font-face {
            font-family: 'Inter';
            src: url('assets/fonts/Inter-Regular.ttf') format('truetype');
            font-weight: 400;
            font-style: normal;
            font-display: swap;
        }
        @font-face {
            font-family: 'Inter';
            src: url('assets/fonts/Inter-Bold.ttf') format('truetype');
            font-weight: 600;
            font-style: normal;
            font-display: swap;
        }
        @font-face {
            font-family: 'Inter';
            src: url('assets/fonts/Inter-Bold.ttf') format('truetype');
            font-weight: 800;
            font-style: normal;
            font-display: swap;
        }
        
:root {
    --background: #f8fafc;
    --panel: #ffffff;
    --primary-text: #0f172a;
    --muted-text: #64748b;
    --inverse-text: #ffffff;
    --border: #e2e8f0;
    --shadow-color: #000000;
    --icon-pad-bg: #1e293b;
    --art-glow: #0891b2;
    --art-glow-opacity: 0.10;
    --art-sheen: #ffffff;
    --art-sheen-opacity: 0.34;
    --art-shadow: #0f172a;
    --art-shadow-opacity: 0.14;
    --art-muted-line: #94a3b8;
    --art-panel-tint: #f1f5f9;
    --font-family: 'Inter', 'Segoe UI', 'Kalam', Roboto, Helvetica, Arial, sans-serif;
    --radius-xl: 16px;
    --font-family-headline: 'Inter', 'Segoe UI', 'Kalam', Roboto, Helvetica, Arial, sans-serif;
    --font-family-body: 'Inter', 'Segoe UI', 'Kalam', Roboto, Helvetica, Arial, sans-serif;
    --font-heading: 'Inter', 'Segoe UI', 'Kalam', Roboto, Helvetica, Arial, sans-serif;
    --font-body: 'Inter', 'Segoe UI', 'Kalam', Roboto, Helvetica, Arial, sans-serif;
    --font-size-h1: 56px;
    --font-size-h2: 40px;
    --font-size-h3: 28px;
    --font-size-body: 24px;
    --font-size-caption: 18px;
    --secondary-text: var(--muted-text);
    --panel-border: var(--border);
    --font-weight-normal: 400;
    --font-weight-medium: 500;
    --font-weight-semibold: 600;
    --font-weight-bold: 700;
    --spacing-gutter-pct: 0.07;
    --spacing-top-pct: 0.15;
    --spacing-bottom-pct: 0.07;
    --spacing-title-y-pct: 0.055;
    --accent-1: #2563eb;
    --accent-2: #16a34a;
    --accent-3: #ea580c;
    --accent-4: #7c3aed;
    --accent-5: #0284c7;
    --accent-6: #475569;
}
:root[data-theme="dark"] {
    --background: #0f172a;
    --panel: #1e293b;
    --primary-text: #f1f5f9;
    --muted-text: #94a3b8;
    --inverse-text: #0f172a;
    --border: #334155;
    --shadow-color: #000000;
    --icon-pad-bg: #1e293b;
    --art-glow: #7dd3fc;
    --art-glow-opacity: 0.18;
    --art-sheen: #ffffff;
    --art-sheen-opacity: 0.18;
    --art-shadow: #000000;
    --art-shadow-opacity: 0.28;
    --art-muted-line: #64748b;
    --art-panel-tint: #1e293b;
    --accent-1: #60a5fa;
    --accent-2: #4ade80;
    --accent-3: #f97316;
    --accent-4: #a78bfa;
    --accent-5: #38bdf8;
    --accent-6: #94a3b8;
}
:root[data-theme="light"] {
    --background: #f8fafc;
    --panel: #ffffff;
    --primary-text: #0f172a;
    --muted-text: #64748b;
    --inverse-text: #ffffff;
    --border: #e2e8f0;
    --shadow-color: #000000;
    --icon-pad-bg: #1e293b;
    --art-glow: #0891b2;
    --art-glow-opacity: 0.10;
    --art-sheen: #ffffff;
    --art-sheen-opacity: 0.34;
    --art-shadow: #0f172a;
    --art-shadow-opacity: 0.14;
    --art-muted-line: #94a3b8;
    --art-panel-tint: #f1f5f9;
    --accent-1: #2563eb;
    --accent-2: #16a34a;
    --accent-3: #ea580c;
    --accent-4: #7c3aed;
    --accent-5: #0284c7;
    --accent-6: #475569;
}</style>
  <rect x="0" y="0" width="1.92E+3" height="1.08E+3" fill="#252a34" stroke="none" id="programmatic_background"/>
  <line id="HEADER_DECOR" x1="960.0" x2="1080.0" y1="105.0" y2="105.0" stroke="var(--accent-1)" stroke-width="6" stroke-linecap="round"/>
  <defs>
    <pattern id="svg285e6a30-napkin-hatch" patternUnits="userSpaceOnUse" width="12" height="12">
      <path d="M -3 12 L 12 -3 M 0 15 L 15 0" fill="none" stroke="var(--primary-text)" stroke-width="1" stroke-opacity="0.05"/>
    </pattern>
    <filter id="svg285e6a30-shadow" x="-30%" y="-30%" width="160%" height="160%">
      <feDropShadow dx="0" dy="3" stdDeviation="6" flood-color="#000000" flood-opacity="0.10"/>
      <feDropShadow dx="0" dy="8" stdDeviation="12" flood-color="#000000" flood-opacity="0.16"/>
    </filter>
    <radialGradient id="svg285e6a30-universal-edge-vignette" cx="50%" cy="50%" r="72%">
      <stop offset="0%" stop-color="var(--background)" stop-opacity="0"/>
      <stop offset="72%" stop-color="var(--background)" stop-opacity="0.12"/>
      <stop offset="100%" stop-color="var(--primary-text)" stop-opacity="0.08"/>
    </radialGradient>
    <linearGradient id="svg285e6a30-universal-surface-sheen" x1="0%" y1="0%" x2="100%" y2="100%">
      <stop offset="0%" stop-color="var(--art-sheen)" stop-opacity="var(--art-sheen-opacity)"/>
      <stop offset="46%" stop-color="var(--art-sheen)" stop-opacity="0.035"/>
      <stop offset="100%" stop-color="var(--art-panel-tint)" stop-opacity="0.14"/>
    </linearGradient>
    <radialGradient id="svg285e6a30-universal-icon-aura" cx="50%" cy="42%" r="64%">
      <stop offset="0%" stop-color="var(--art-glow)" stop-opacity="var(--art-glow-opacity)"/>
      <stop offset="100%" stop-color="var(--background)" stop-opacity="0"/>
    </radialGradient>
    <linearGradient id="svg285e6a30-card-panel-sheen" x1="0%" y1="0%" x2="100%" y2="100%">
      <stop offset="0%" stop-color="var(--inverse-text)" stop-opacity="0.20"/>
      <stop offset="48%" stop-color="var(--inverse-text)" stop-opacity="0.04"/>
      <stop offset="100%" stop-color="var(--background)" stop-opacity="0.16"/>
    </linearGradient>
    <radialGradient id="svg285e6a30-card-icon-glow" cx="50%" cy="35%" r="62%">
      <stop offset="0%" stop-color="var(--inverse-text)" stop-opacity="0.22"/>
      <stop offset="100%" stop-color="var(--background)" stop-opacity="0"/>
    </radialGradient>
    <filter id="svg285e6a30-text-glow" x="-20%" y="-20%" width="140%" height="140%">
      <feDropShadow dx="0" dy="0" stdDeviation="2" flood-color="#000000" flood-opacity="0.4"/>
    </filter>
    <marker id="svg285e6a30-arrowhead" markerWidth="10" markerHeight="7" refX="9" refY="3.5" orient="auto" markerUnits="strokeWidth">
      <polygon points="0 0, 10 3.5, 0 7" fill="var(--muted-text)" opacity="0.6"/>
    </marker>
  </defs>
  <rect width="100%" height="100%" fill="var(--background)" id="CANVAS_BG"/>
  <rect width="100%" height="100%" fill="url(#svg285e6a30-napkin-hatch)"/>
  <rect id="UNIVERSAL_EDGE_VIGNETTE" width="100%" height="100%" fill="url(#svg285e6a30-universal-edge-vignette)" opacity="0.62"/>
  <text id="TITLE" x="960.0" y="59" font-size="54" font-weight="800" fill="#0f172a" text-anchor="middle" style="font-size: 60px; font-family: Inter, Segoe UI, Kalam, Roboto, Helvetica, Arial, sans-serif; font-weight: 700; letter-spacing:-1.2px;" data-final-font-size="60">
    <tspan x="960.0" dy="68.00px">UNHCR Information Integrity</tspan>
  </text>
  <rect id="TITLE_FRAME" x="134" y="35" width="1652" height="78" fill="none"/>
  <rect x="120" y="150" width="1680" height="830" rx="40" fill="var(--panel)" fill-opacity="0.24" stroke="var(--muted-text)" stroke-width="2" opacity="0.94"/>
  <g id="DIAGRAM_MAIN">
    <g filter="url(#svg285e6a30-shadow)">
      <rect id="ITEM_1_BG" x="170" y="180" width="480" height="388" rx="28" fill="var(--panel)" fill-opacity="0.98" stroke="var(--accent-1)" stroke-width="3"/>
      <rect x="170" y="180" width="480" height="18" rx="9" fill="var(--accent-1)" fill-opacity="0.55"/>
      <rect x="295" y="216" width="230" height="30" rx="15" fill="var(--accent-1)" fill-opacity="0.10"/>
      <circle id="ITEM_1_PAD" cx="410" cy="262" r="54" fill="var(--icon-pad-bg)" opacity="0.95" fill-opacity="0.9" stroke-width="2" stroke="var(--primary-text)"/>
      <circle id="ITEM_1_PAD_INNER" cx="410" cy="262" r="42.12" fill="var(--accent-2)" fill-opacity="0.22"/>
      <circle cx="410" cy="262" r="42" fill="none" stroke="var(--accent-1)" stroke-width="3" stroke-dasharray="6 4"/>
      <g id="ITEM_1_ICON" transform="translate(373, 225)" data-icon-size="74">
        <g transform="translate(-11.137142857142862,-22.043214285714292) scale(3.008571428571429)">
          <path fill-rule="evenodd" clip-rule="evenodd" d="M28.9278 10.3004C30.1588 11.6067 30.0977 13.6636 28.7914 14.8946L13.9394 28.8901C12.6481 30.107 10.6193 30.0632 9.38167 28.7917L3.11793 22.3567C1.86596 21.0705 1.89371 19.0129 3.17992 17.7609C4.46612 16.509 6.52372 16.5367 7.77569 17.8229L11.809 21.9665L24.3336 10.164C25.6399 8.93304 27.6968 8.99411 28.9278 10.3004Z" fill="#785DC8"/>
        </g>
      </g>
      <text id="ITEM_1_HEAD" x="410.0" y="328.0" font-weight="800" font-size="28" fill="var(--primary-text)" text-anchor="middle" data-bg-id="ITEM_1_BG" fill-opacity="1.0" style="font-size: 30px; font-family: Inter, Segoe UI, Kalam, Roboto, Helvetica, Arial, sans-serif; font-weight: 700; letter-spacing:-0.4px;" data-final-font-size="30">
        <tspan x="410.0" dy="42.97px">Confirmed</tspan>
      </text>
      <rect id="ITEM_1_HEAD_FRAME" x="230" y="328" width="360" height="56" fill="none"/>
      <text id="ITEM_1_BODY" x="410.0" y="378.0" font-size="18" fill="var(--primary-text)" text-anchor="middle" data-bg-id="ITEM_1_BG" style="font-size: 26px; font-family: Inter, Segoe UI, Kalam, Roboto, Helvetica, Arial, sans-serif; font-weight: 400;" data-final-font-size="26">
        <tspan x="410.0" dy="47.53px">Reliable evidence supports the claim</tspan>
        <tspan x="410.0" dy="29.90px">with independent verification</tspan>
      </text>
      <rect id="ITEM_1_BODY_FRAME" x="195" y="378" width="430" height="156" fill="none"/>
    </g>
    <g filter="url(#svg285e6a30-shadow)">
      <rect id="ITEM_2_BG" x="720" y="180" width="480" height="388" rx="28" fill="var(--panel)" fill-opacity="0.98" stroke="var(--accent-2)" stroke-width="3"/>
      <rect x="720" y="180" width="480" height="18" rx="9" fill="var(--accent-2)" fill-opacity="0.55"/>
      <rect x="845" y="216" width="230" height="30" rx="15" fill="var(--accent-2)" fill-opacity="0.10"/>
      <circle id="ITEM_2_PAD" cx="960" cy="262" r="54" fill="var(--icon-pad-bg)" opacity="0.95" fill-opacity="0.9" stroke-width="2" stroke="var(--primary-text)"/>
      <circle id="ITEM_2_PAD_INNER" cx="960" cy="262" r="42.12" fill="var(--accent-3)" fill-opacity="0.22"/>
      <circle cx="960" cy="262" r="42" fill="none" stroke="var(--accent-2)" stroke-width="3" stroke-dasharray="6 4"/>
      <g id="ITEM_2_ICON" transform="translate(923, 225)" data-icon-size="74">
        <g transform="translate(-11.137142857142862,-11.137142857142862) scale(3.008571428571429)">
          <path d="M24.8787 2.87868C26.0503 1.70711 27.9497 1.70711 29.1213 2.87868C30.2929 4.05025 30.2929 5.94975 29.1213 7.12132L20.331 15.9116C20.2822 15.9604 20.2822 16.0396 20.331 16.0884L29.1213 24.8787C30.2929 26.0503 30.2929 27.9497 29.1213 29.1213C27.9497 30.2929 26.0503 30.2929 24.8787 29.1213L16.0884 20.331C16.0396 20.2822 15.9604 20.2822 15.9116 20.331L7.12132 29.1213C5.94975 30.2929 4.05025 30.2929 2.87868 29.1213C1.70711 27.9497 1.70711 26.0503 2.87868 24.8787L11.669 16.0884C11.7178 16.0396 11.7178 15.9604 11.669 15.9116L2.87868 7.12132C1.70711 5.94975 1.70711 4.05025 2.87868 2.87868C4.05025 1.70711 5.94975 1.70711 7.12132 2.87868L15.9116 11.669C15.9604 11.7178 16.0396 11.7178 16.0884 11.669L24.8787 2.87868Z" fill="#F92F60"/>
        </g>
      </g>
      <text id="ITEM_2_HEAD" x="960.0" y="328.0" font-weight="800" font-size="28" fill="var(--primary-text)" text-anchor="middle" data-bg-id="ITEM_2_BG" fill-opacity="1.0" style="font-size: 30px; font-family: Inter, Segoe UI, Kalam, Roboto, Helvetica, Arial, sans-serif; font-weight: 700; letter-spacing:-0.4px;" data-final-font-size="30">
        <tspan x="960.0" dy="42.97px">Disconfirmed</tspan>
      </text>
      <rect id="ITEM_2_HEAD_FRAME" x="780" y="328" width="360" height="56" fill="none"/>
      <text id="ITEM_2_BODY" x="960.0" y="378.0" font-size="18" fill="var(--primary-text)" text-anchor="middle" data-bg-id="ITEM_2_BG" style="font-size: 26px; font-family: Inter, Segoe UI, Kalam, Roboto, Helvetica, Arial, sans-serif; font-weight: 400;" data-final-font-size="26">
        <tspan x="960.0" dy="47.53px">Evidence shows the claim is false</tspan>
        <tspan x="960.0" dy="29.90px">or inconsistent with facts</tspan>
      </text>
      <rect id="ITEM_2_BODY_FRAME" x="745" y="378" width="430" height="156" fill="none"/>
    </g>
    <g filter="url(#svg285e6a30-shadow)">
      <rect id="ITEM_3_BG" x="1270" y="180" width="480" height="388" rx="28" fill="var(--panel)" fill-opacity="0.98" stroke="var(--accent-3)" stroke-width="3"/>
      <rect x="1270" y="180" width="480" height="18" rx="9" fill="var(--accent-3)" fill-opacity="0.55"/>
      <rect x="1395" y="216" width="230" height="30" rx="15" fill="var(--accent-3)" fill-opacity="0.10"/>
      <circle id="ITEM_3_PAD" cx="1510" cy="262" r="54" fill="var(--icon-pad-bg)" opacity="0.95" fill-opacity="0.9" stroke-width="2" stroke="var(--primary-text)"/>
      <circle id="ITEM_3_PAD_INNER" cx="1510" cy="262" r="42.12" fill="var(--accent-4)" fill-opacity="0.22"/>
      <circle cx="1510" cy="262" r="42" fill="none" stroke="var(--accent-3)" stroke-width="3" stroke-dasharray="6 4"/>
      <g id="ITEM_3_ICON" transform="translate(1473, 225)" data-icon-size="74">
        <g transform="translate(-25.69023255813954,-25.69023255813954) scale(5.224186046511629)" vector-effect="non-scaling-stroke" stroke-width="2.60" stroke-linecap="round" stroke-linejoin="round" stroke-opacity="1.0">
          <path d="M8 8a3.5 3 0 0 1 3.5 -3h1a3.5 3 0 0 1 3.5 3a3 3 0 0 1 -2 3a3 4 0 0 0 -2 4" vector-effect="non-scaling-stroke" fill="none" stroke="#f1f5f9"/>
          <path d="M12 19l0 .01" vector-effect="non-scaling-stroke" fill="none" stroke="#f1f5f9"/>
        </g>
      </g>
      <text id="ITEM_3_HEAD" x="1510.0" y="328.0" font-weight="800" font-size="28" fill="var(--accent-4)" text-anchor="middle" data-bg-id="ITEM_3_BG" fill-opacity="1.0" style="font-size: 30px; font-family: Inter, Segoe UI, Kalam, Roboto, Helvetica, Arial, sans-serif; font-weight: 700; letter-spacing:-0.4px;" data-final-font-size="30">
        <tspan x="1510.0" dy="42.97px">Unverified</tspan>
      </text>
      <rect id="ITEM_3_HEAD_FRAME" x="1330" y="328" width="360" height="56" fill="none"/>
      <text id="ITEM_3_BODY" x="1510.0" y="378.0" font-size="18" fill="var(--primary-text)" text-anchor="middle" data-bg-id="ITEM_3_BG" style="font-size: 26px; font-family: Inter, Segoe UI, Kalam, Roboto, Helvetica, Arial, sans-serif; font-weight: 400;" data-final-font-size="26">
        <tspan x="1510.0" dy="47.53px">Information is insufficient for a</tspan>
        <tspan x="1510.0" dy="29.90px">confident judgement yet</tspan>
      </text>
      <rect id="ITEM_3_BODY_FRAME" x="1295" y="378" width="430" height="156" fill="none"/>
    </g>
    <g filter="url(#svg285e6a30-shadow)">
      <rect id="ITEM_4_BG" x="260" y="580" width="660" height="370" rx="30" fill="var(--panel)" fill-opacity="0.98" stroke="var(--accent-4)" stroke-width="3"/>
      <rect x="260" y="590" width="660" height="18" rx="9" fill="var(--accent-4)" fill-opacity="0.55"/>
      <rect x="430" y="628" width="320" height="32" rx="16" fill="var(--accent-4)" fill-opacity="0.10"/>
      <circle id="ITEM_4_PAD" cx="590" cy="684" r="54" fill="var(--icon-pad-bg)" opacity="0.95" fill-opacity="0.9" stroke-width="2" stroke="var(--primary-text)"/>
      <circle id="ITEM_4_PAD_INNER" cx="590" cy="684" r="42.12" fill="var(--accent-5)" fill-opacity="0.22"/>
      <circle cx="590" cy="684" r="42" fill="none" stroke="var(--accent-4)" stroke-width="3" stroke-dasharray="6 4"/>
      <g id="ITEM_4_ICON" transform="translate(551, 645)" data-icon-size="78">
        <g transform="translate(-9.191351351351358,-17.53945945945947) scale(3.035675675675676)">
          <path d="M2 16L9.5 18L14.5 16L18.5 13C18.5 13 20.1154 7.39479 20.8563 8.26449C20.8563 8.26449 19.7493 7 19 7H8.5C7.5 7 6.88889 8 6.88889 8L2 16Z" fill="#F3C07B"/>
          <path d="M21.0345 8.49998L28.9655 20C28.9655 20 30 21.5 29.4629 22.4131L25 30L18.5 24L14.5 16L19 7.89998C19.2015 7.52659 20.2729 7.36976 21.0345 8.49998Z" fill="#FFDEA7"/>
          <path d="M14.5 16H2L12.5 30H25L14.5 16Z" fill="#7D4533"/>
          <path d="M7 16C6.72555 16 6.69404 15.9746 6.68741 15.9693C6.68665 15.9687 6.67867 15.9624 6.66585 15.9438C6.65223 15.9241 6.62933 15.8851 6.60462 15.8166C6.5536 15.6753 6.5 15.4226 6.5 15C6.5 14.4477 6.05228 14 5.5 14C4.94772 14 4.5 14.4477 4.5 15C4.5 16.1381 4.78342 17.0074 5.4378 17.5309C5.62144 17.6778 5.81407 17.7788 6 17.8483V29.25C6 29.8023 6.44772 30.25 7 30.25C7.55228 30.25 8 29.8023 8 29.25V17.8483C8.18593 17.7788 8.37856 17.6778 8.56219 17.5309C9.00887 17.1735 9.2827 16.6551 9.41154 16H7Z" fill="#D3D3D3"/>
          <path d="M9.60597 30H15.894C16.3205 30 16.6005 29.492 16.466 29.0341C16.4411 28.9491 16.4138 28.8639 16.4054 28.7757L15.7656 22H12.7503C12.5464 21.9999 12.3425 22.1211 12.226 22.3636L9.08197 28.9091C8.84908 29.3939 9.14019 30 9.60597 30Z" fill="#FFB02E"/>
          <path d="M15.226 22.3636C15.4589 21.8788 16.0411 21.8788 16.274 22.3636L19.418 28.9091C19.6509 29.3939 19.3598 30 18.894 30H12.606C12.1402 30 11.8491 29.3939 12.082 28.9091L15.226 22.3636Z" fill="#F9C23C"/>
          <path d="M16.25 25.5C16.25 25.9142 15.9142 26.25 15.5 26.25C15.0858 26.25 14.75 25.9142 14.75 25.5C14.75 25.0858 15.0858 24.75 15.5 24.75C15.9142 24.75 16.25 25.0858 16.25 25.5Z" fill="#D3883E"/>
          <path d="M16 28C16 28.5523 15.5523 29 15 29C14.4477 29 14 28.5523 14 28C14 27.4477 14.4477 27 15 27C15.5523 27 16 27.4477 16 28Z" fill="#D3883E"/>
          <path d="M17 27.5C17.2761 27.5 17.5 27.2761 17.5 27C17.5 26.7239 17.2761 26.5 17 26.5C16.7239 26.5 16.5 26.7239 16.5 27C16.5 27.2761 16.7239 27.5 17 27.5Z" fill="#D3883E"/>
        </g>
      </g>
      <text id="ITEM_4_HEAD" x="590.0" y="754.0" font-weight="800" font-size="30" fill="var(--primary-text)" text-anchor="middle" data-bg-id="ITEM_4_BG" fill-opacity="1.0" style="font-size: 30px; font-family: Inter, Segoe UI, Kalam, Roboto, Helvetica, Arial, sans-serif; font-weight: 700; letter-spacing:-0.4px;" data-final-font-size="30">
        <tspan x="590.0" dy="44.21px">Rumour Trap</tspan>
      </text>
      <rect id="ITEM_4_HEAD_FRAME" x="380" y="754" width="420" height="58" fill="none"/>
      <text id="ITEM_4_BODY" x="595.0" y="798.0" font-size="18" fill="var(--primary-text)" text-anchor="middle" data-bg-id="ITEM_4_BG" style="font-size: 26px; font-family: Inter, Segoe UI, Kalam, Roboto, Helvetica, Arial, sans-serif; font-weight: 400;" data-final-font-size="26">
        <tspan x="595.0" dy="45.54px">Unverified claims are treated as probable</tspan>
        <tspan x="595.0" dy="29.90px">truth by mistake</tspan>
      </text>
      <rect id="ITEM_4_BODY_FRAME" x="360" y="798" width="470" height="148" fill="none"/>
    </g>
    <g filter="url(#svg285e6a30-shadow)">
      <rect id="ITEM_5_BG" x="1000" y="580" width="660" height="370" rx="30" fill="var(--panel)" fill-opacity="0.98" stroke="var(--accent-5)" stroke-width="3"/>
      <rect x="1000" y="590" width="660" height="18" rx="9" fill="var(--accent-5)" fill-opacity="0.55"/>
      <rect x="1170" y="628" width="320" height="32" rx="16" fill="var(--accent-5)" fill-opacity="0.10"/>
      <circle id="ITEM_5_PAD" cx="1330" cy="684" r="54" fill="var(--icon-pad-bg)" opacity="0.95" fill-opacity="0.9" stroke-width="2" stroke="var(--primary-text)"/>
      <circle id="ITEM_5_PAD_INNER" cx="1330" cy="684" r="42.12" fill="var(--accent-6)" fill-opacity="0.22"/>
      <circle cx="1330" cy="684" r="42" fill="none" stroke="var(--accent-5)" stroke-width="3" stroke-dasharray="6 4"/>
      <g id="ITEM_5_ICON" transform="translate(1291, 645)" data-icon-size="78">
        <g transform="translate(-9.137142857142862,-9.513214285714291) scale(3.008571428571429)">
          <path d="M4.71839 18.0233C5.11525 17.458 5.8952 17.3215 6.46045 17.7184L18.5318 26.1936L17.0946 28.2406L5.02328 19.7653C4.45803 19.3685 4.32152 18.5885 4.71839 18.0233Z" fill="#5092FF"/>
          <path d="M18.5013 2.80347C18.8302 2.3598 19.4615 2.25982 19.9114 2.58017L21.5841 3.77124C22.034 4.09158 22.1321 4.71094 21.8032 5.15461L13.1102 16.8809C12.4436 17.7801 11.1641 17.9827 10.2523 17.3335C9.34053 16.6842 9.14176 15.429 9.80835 14.5298L18.5013 2.80347Z" fill="#636363"/>
          <path d="M18.0472 3.66594C16.8384 3.31432 15.3804 3.86071 14.5971 4.91739L11.7749 8.7243L11.9999 10.0001L10.6024 10.306L10.3989 10.5805C9.07399 12.3677 9.47824 14.8692 11.3018 16.1677C13.1254 17.4662 15.6778 17.07 17.0027 15.2828L17.1623 15.0675L16.9999 13.5001H18.3242L18.4883 13.2787C21.992 13.9302 23.8684 16.851 23.963 19.8545C24.0149 21.5041 23.5209 23.1307 22.4806 24.3899C21.4537 25.6329 19.8112 26.6185 17.3793 26.8486C16.5451 26.9276 15.9304 27.6956 16.0062 28.564C16.082 29.4325 16.8197 30.0725 17.6539 29.9935C20.7829 29.6974 23.1847 28.3804 24.7802 26.4491C26.3624 24.5339 27.069 22.1145 26.9946 19.751C26.8719 15.8564 24.6058 11.9837 20.5048 10.5586L21.2008 9.61967C21.9842 8.56299 22.0639 7.03517 21.3491 6.01708L18.0472 3.66594Z" fill="#BEBEBE"/>
          <path d="M2 29.2C2 27.4327 3.43269 26 5.2 26H26.8C28.5673 26 30 27.4327 30 29.2C30 29.6418 29.6418 30 29.2 30H2.8C2.35817 30 2 29.6418 2 29.2Z" fill="#9B9B9B"/>
          <path d="M11.7757 8.70947L18.3343 13.4746L17.1588 15.0927L10.6001 10.3275L11.7757 8.70947Z" fill="#D3D3D3"/>
        </g>
      </g>
      <text id="ITEM_5_HEAD" x="1330.0" y="754.0" font-weight="800" font-size="30" fill="var(--accent-6)" text-anchor="middle" data-bg-id="ITEM_5_BG" fill-opacity="1.0" style="font-size: 30px; font-family: Inter, Segoe UI, Kalam, Roboto, Helvetica, Arial, sans-serif; font-weight: 700; letter-spacing:-0.4px;" data-final-font-size="30">
        <tspan x="1330.0" dy="44.21px">Investigation</tspan>
      </text>
      <rect id="ITEM_5_HEAD_FRAME" x="1120" y="754" width="420" height="58" fill="none"/>
      <text id="ITEM_5_BODY" x="1335.0" y="798.0" font-size="18" fill="var(--primary-text)" text-anchor="middle" data-bg-id="ITEM_5_BG" style="font-size: 26px; font-family: Inter, Segoe UI, Kalam, Roboto, Helvetica, Arial, sans-serif; font-weight: 400;" data-final-font-size="26">
        <tspan x="1335.0" dy="45.54px">Absence of disproof justifies continued</tspan>
        <tspan x="1335.0" dy="29.90px">investigation only</tspan>
      </text>
      <rect id="ITEM_5_BODY_FRAME" x="1100" y="798" width="470" height="148" fill="none"/>
    </g>
  </g>
</svg>
