<?xml version='1.0' encoding='utf-8'?>
<svg xmlns="http://www.w3.org/2000/svg" width="1920" height="1080" viewBox="0 0 1920 1080" data-theme="dark">
  <style>
        @font-face {
            font-family: 'Inter';
            src: url('assets/fonts/Inter-Regular.ttf') format('truetype');
            font-weight: 400;
            font-style: normal;
            font-display: swap;
        }
        @font-face {
            font-family: 'Inter';
            src: url('assets/fonts/Inter-Bold.ttf') format('truetype');
            font-weight: 600;
            font-style: normal;
            font-display: swap;
        }
        @font-face {
            font-family: 'Inter';
            src: url('assets/fonts/Inter-Bold.ttf') format('truetype');
            font-weight: 800;
            font-style: normal;
            font-display: swap;
        }
        
:root {
    --background: #0f172a;
    --panel: #1e293b;
    --primary-text: #f1f5f9;
    --muted-text: #94a3b8;
    --inverse-text: #0f172a;
    --border: #334155;
    --shadow-color: #000000;
    --icon-pad-bg: #1e293b;
    --art-glow: #7dd3fc;
    --art-glow-opacity: 0.18;
    --art-sheen: #ffffff;
    --art-sheen-opacity: 0.18;
    --art-shadow: #000000;
    --art-shadow-opacity: 0.28;
    --art-muted-line: #64748b;
    --art-panel-tint: #1e293b;
    --font-family: 'Inter', 'Segoe UI', 'Kalam', Roboto, Helvetica, Arial, sans-serif;
    --radius-xl: 16px;
    --font-family-headline: 'Inter', 'Segoe UI', 'Kalam', Roboto, Helvetica, Arial, sans-serif;
    --font-family-body: 'Inter', 'Segoe UI', 'Kalam', Roboto, Helvetica, Arial, sans-serif;
    --font-heading: 'Inter', 'Segoe UI', 'Kalam', Roboto, Helvetica, Arial, sans-serif;
    --font-body: 'Inter', 'Segoe UI', 'Kalam', Roboto, Helvetica, Arial, sans-serif;
    --font-size-h1: 56px;
    --font-size-h2: 40px;
    --font-size-h3: 28px;
    --font-size-body: 24px;
    --font-size-caption: 18px;
    --secondary-text: var(--muted-text);
    --panel-border: var(--border);
    --font-weight-normal: 400;
    --font-weight-medium: 500;
    --font-weight-semibold: 600;
    --font-weight-bold: 700;
    --spacing-gutter-pct: 0.07;
    --spacing-top-pct: 0.15;
    --spacing-bottom-pct: 0.07;
    --spacing-title-y-pct: 0.055;
    --accent-1: #60a5fa;
    --accent-2: #4ade80;
    --accent-3: #f97316;
    --accent-4: #a78bfa;
    --accent-5: #38bdf8;
    --accent-6: #94a3b8;
}
:root[data-theme="dark"] {
    --background: #0f172a;
    --panel: #1e293b;
    --primary-text: #f1f5f9;
    --muted-text: #94a3b8;
    --inverse-text: #0f172a;
    --border: #334155;
    --shadow-color: #000000;
    --icon-pad-bg: #1e293b;
    --art-glow: #7dd3fc;
    --art-glow-opacity: 0.18;
    --art-sheen: #ffffff;
    --art-sheen-opacity: 0.18;
    --art-shadow: #000000;
    --art-shadow-opacity: 0.28;
    --art-muted-line: #64748b;
    --art-panel-tint: #1e293b;
    --accent-1: #60a5fa;
    --accent-2: #4ade80;
    --accent-3: #f97316;
    --accent-4: #a78bfa;
    --accent-5: #38bdf8;
    --accent-6: #94a3b8;
}
:root[data-theme="light"] {
    --background: #f8fafc;
    --panel: #ffffff;
    --primary-text: #0f172a;
    --muted-text: #64748b;
    --inverse-text: #ffffff;
    --border: #e2e8f0;
    --shadow-color: #000000;
    --icon-pad-bg: #1e293b;
    --art-glow: #0891b2;
    --art-glow-opacity: 0.10;
    --art-sheen: #ffffff;
    --art-sheen-opacity: 0.34;
    --art-shadow: #0f172a;
    --art-shadow-opacity: 0.14;
    --art-muted-line: #94a3b8;
    --art-panel-tint: #f1f5f9;
    --accent-1: #2563eb;
    --accent-2: #16a34a;
    --accent-3: #ea580c;
    --accent-4: #7c3aed;
    --accent-5: #0284c7;
    --accent-6: #475569;
}</style>
  <rect x="0" y="0" width="1.92E+3" height="1.08E+3" fill="#252a34" stroke="none" id="programmatic_background"/>
  <line id="HEADER_DECOR" x1="960.0" x2="1080.0" y1="125.0" y2="125.0" stroke="var(--accent-1)" stroke-width="6" stroke-linecap="round"/>
  <defs>
    <pattern id="svg723bcc13-napkin-hatch" patternUnits="userSpaceOnUse" width="12" height="12">
      <path d="M -3 12 L 12 -3 M 0 15 L 15 0" fill="none" stroke="var(--primary-text)" stroke-width="1" stroke-opacity="0.05"/>
    </pattern>
    <filter id="svg723bcc13-soft-shadow" x="-30%" y="-30%" width="160%" height="160%">
      <feDropShadow dx="0" dy="4" stdDeviation="10" flood-color="#000000" flood-opacity="0.2"/>
    </filter>
    <radialGradient id="svg723bcc13-universal-edge-vignette" cx="50%" cy="50%" r="72%">
      <stop offset="0%" stop-color="var(--background)" stop-opacity="0"/>
      <stop offset="72%" stop-color="var(--background)" stop-opacity="0.12"/>
      <stop offset="100%" stop-color="var(--primary-text)" stop-opacity="0.08"/>
    </radialGradient>
    <linearGradient id="svg723bcc13-universal-surface-sheen" x1="0%" y1="0%" x2="100%" y2="100%">
      <stop offset="0%" stop-color="var(--art-sheen)" stop-opacity="var(--art-sheen-opacity)"/>
      <stop offset="46%" stop-color="var(--art-sheen)" stop-opacity="0.035"/>
      <stop offset="100%" stop-color="var(--art-panel-tint)" stop-opacity="0.14"/>
    </linearGradient>
    <radialGradient id="svg723bcc13-universal-icon-aura" cx="50%" cy="42%" r="64%">
      <stop offset="0%" stop-color="var(--art-glow)" stop-opacity="var(--art-glow-opacity)"/>
      <stop offset="100%" stop-color="var(--background)" stop-opacity="0"/>
    </radialGradient>
    <linearGradient id="svg723bcc13-comparison-card-depth" x1="0%" y1="0%" x2="0%" y2="100%">
      <stop offset="0%" stop-color="var(--art-sheen)" stop-opacity="0.30"/>
      <stop offset="55%" stop-color="var(--art-sheen)" stop-opacity="0.035"/>
      <stop offset="100%" stop-color="var(--art-shadow)" stop-opacity="0.10"/>
    </linearGradient>
    <filter id="svg723bcc13-text-glow" x="-20%" y="-20%" width="140%" height="140%">
      <feDropShadow dx="0" dy="0" stdDeviation="2" flood-color="#000000" flood-opacity="0.4"/>
    </filter>
    <filter id="svg723bcc13-shadow" x="-30%" y="-30%" width="160%" height="160%">
      <feDropShadow dx="0" dy="2" stdDeviation="3" flood-color="#000000" flood-opacity="0.08"/>
      <feDropShadow dx="0" dy="6" stdDeviation="10" flood-color="#000000" flood-opacity="0.12"/>
    </filter>
    <marker id="svg723bcc13-arrowhead" markerWidth="10" markerHeight="7" refX="9" refY="3.5" orient="auto" markerUnits="strokeWidth">
      <polygon points="0 0, 10 3.5, 0 7" fill="var(--muted-text)" opacity="0.6"/>
    </marker>
  </defs>
  <rect id="CANVAS_BG" width="100%" height="100%" fill="var(--background)"/>
  <rect width="100%" height="100%" fill="url(#svg723bcc13-napkin-hatch)"/>
  <rect id="UNIVERSAL_EDGE_VIGNETTE" width="100%" height="100%" fill="url(#svg723bcc13-universal-edge-vignette)" opacity="0.62"/>
  <text id="TITLE" x="960.0" y="59" text-anchor="middle" font-size="60" font-weight="800" fill="#f1f5f9" style="font-size: 60px; font-family: Inter, Segoe UI, Kalam, Roboto, Helvetica, Arial, sans-serif; font-weight: 700; letter-spacing:-1.2px;" data-final-font-size="60">
    <tspan x="960.0" dy="68.00px">Britannica Whataboutism</tspan>
  </text>
  <rect id="TITLE_FRAME" x="134" y="59" width="1652" height="103" fill="none"/>
  <rect x="110" y="180" width="1700" height="770" rx="38" fill="var(--panel)" fill-opacity="0.28" stroke="var(--muted-text)" stroke-width="2" opacity="0.92"/>
  <line x1="960" y1="225" x2="960" y2="545" stroke="var(--muted-text)" stroke-width="4" stroke-dasharray="10 10" opacity="0.35"/>
  <rect x="878" y="370" width="164" height="34" rx="17" fill="var(--background)" stroke="var(--muted-text)" stroke-width="2" opacity="0.9"/>
  <text x="960" y="394" text-anchor="middle" font-size="20" font-weight="700" fill="var(--primary-text)">Tradeoffs</text>
  <g filter="url(#svg723bcc13-soft-shadow)">
    <rect id="ITEM_1_BG" x="150" y="230" width="700" height="300" rx="30" fill="var(--panel)" fill-opacity="0.97" stroke="var(--accent-1)" stroke-width="3"/>
    <rect x="150" y="230" width="700" height="18" rx="9" fill="var(--accent-1)" fill-opacity="0.55"/>
    <rect x="392" y="258" width="380" height="34" rx="17" fill="var(--accent-1)" fill-opacity="0.12"/>
    <circle id="ITEM_1_PAD" cx="250" cy="322" r="52" fill="var(--icon-pad-bg)" opacity="0.95" fill-opacity="0.9" stroke-width="2" stroke="var(--primary-text)"/>
    <circle id="ITEM_1_PAD_INNER" cx="250" cy="322" r="40.56" fill="var(--accent-2)" fill-opacity="0.22"/>
    <circle cx="250" cy="322" r="42" fill="none" stroke="var(--accent-1)" stroke-width="3" stroke-dasharray="6 4"/>
    <g id="ITEM_1_ICON" transform="translate(212, 284)" data-icon-size="76" stroke-dasharray="6 4">
      <g transform="translate(-8.354285714285716,-7.6300000000000034) scale(2.8971428571428572)">
        <path d="M25.0642 23.4047L23.9155 20.598L22.2011 21.2996L23.3511 24.1097L23.3525 24.113C23.5183 24.5137 23.3281 24.9545 22.9426 25.1096L18.0368 27.1219L18.0342 27.123C17.6335 27.2888 17.1927 27.0987 17.0376 26.7132L15.8855 23.898L14.1711 24.5997L15.3202 27.4074C15.8659 28.7594 17.403 29.3881 18.741 28.8353L18.7425 28.8347L23.6372 26.8268C24.9889 26.281 25.6173 24.7444 25.065 23.4066L25.0642 23.4047ZM8 23.5L9.70824 26.7789C10.3282 27.4289 10.2982 28.4589 9.63824 29.0689C8.98824 29.6789 7.95824 29.6489 7.34824 28.9989L2.43824 23.7889C1.82824 23.1389 1.85824 22.1089 2.50824 21.4989C3.15824 20.8889 4.18824 20.9189 4.79824 21.5689L8 23.5Z" fill="#FFB02E"/>
        <path d="M29.2283 15.0788L17.6783 2.82884C16.4083 1.47884 14.1783 1.82887 13.3883 3.50887L4.79834 21.5689L9.76834 26.8389L28.3083 19.3288C30.0183 18.6388 30.4983 16.4288 29.2283 15.0788Z" fill="#F9C23C"/>
      </g>
    </g>
    <rect id="ITEM_1_TEXT_BG" x="330.0" y="266.0" width="468.0" height="226.0" rx="22" fill="var(--panel)" fill-opacity="0.94" stroke="var(--primary-text)" stroke-opacity="0.12" stroke-width="1.5"/>
    <rect id="COMPARISON_COLUMNS_ART_PANEL_SHEEN_1" x="330.0" y="266.0" width="468.0" height="226.0" rx="16" fill="var(--accent-2)" opacity="0.82" fill-opacity="0.15" stroke="none"/>
    <text id="ITEM_1_HEAD" x="564.0" y="282.0" text-anchor="middle" font-size="32" font-weight="800" fill="var(--primary-text)" data-bg-id="ITEM_1_TEXT_BG" fill-opacity="1.0" stroke="none" style="font-size: 30px; font-family: Inter, Segoe UI, Kalam, Roboto, Helvetica, Arial, sans-serif; font-weight: 700; letter-spacing:-0.4px;" data-final-font-size="30">
      <tspan x="564.0" dy="40.49px">Original Charge</tspan>
    </text>
    <rect id="ITEM_1_HEAD_FRAME" x="364" y="282" width="400" height="52" fill="none"/>
    <text id="ITEM_1_BODY" x="564.0" y="340.0" text-anchor="middle" font-size="19" fill="var(--primary-text)" data-bg-id="ITEM_1_TEXT_BG" style="font-size: 26px; font-family: Inter, Segoe UI, Kalam, Roboto, Helvetica, Arial, sans-serif; font-weight: 400;" data-final-font-size="26">
      <tspan x="564.0" dy="42.57px">Accuser states a specific criticism</tspan>
      <tspan x="564.0" dy="29.90px">or factual claim</tspan>
    </text>
    <rect id="ITEM_1_BODY_FRAME" x="350" y="340" width="428" height="136" fill="none"/>
  </g>
  <g filter="url(#svg723bcc13-soft-shadow)">
    <rect id="ITEM_2_BG" x="1070" y="230" width="700" height="300" rx="30" fill="var(--panel)" fill-opacity="0.97" stroke="var(--accent-2)" stroke-width="3"/>
    <rect x="1070" y="230" width="700" height="18" rx="9" fill="var(--accent-2)" fill-opacity="0.55"/>
    <rect x="1312" y="258" width="380" height="34" rx="17" fill="var(--accent-2)" fill-opacity="0.12"/>
    <circle id="ITEM_2_PAD" cx="1170" cy="322" r="52" fill="var(--icon-pad-bg)" opacity="0.95" fill-opacity="0.9" stroke-width="2" stroke="var(--primary-text)"/>
    <circle id="ITEM_2_PAD_INNER" cx="1170" cy="322" r="40.56" fill="var(--accent-3)" fill-opacity="0.22"/>
    <circle cx="1170" cy="322" r="42" fill="none" stroke="var(--accent-2)" stroke-width="3" stroke-dasharray="6 4"/>
    <g id="ITEM_2_ICON" transform="translate(1132, 284)" data-icon-size="76" stroke-dasharray="6 4">
      <g transform="translate(-9.565818181818182,-8.459636363636367) scale(2.949818181818182)">
        <path d="M12.0955 2.00006C11.3976 1.98479 10.7193 2.23248 10.1955 2.69402C9.35852 3.44402 9.47151 4.16102 8.72451 5.21502C8.51573 5.55185 8.24017 5.84237 7.91475 6.06854C7.58934 6.29471 7.22102 6.4518 6.83254 6.53008L6.80355 6.53704C6.2786 6.68227 5.81167 6.98694 5.46737 7.40899C5.12307 7.83104 4.91839 8.34958 4.88155 8.893C4.23255 13.982 5.98151 21.8931 10.2035 26.2241C11.3554 27.3166 12.611 28.2941 13.9525 29.143C15.3322 29.6195 16.8318 29.6195 18.2115 29.143C19.5677 28.3047 20.8315 27.3252 21.9816 26.221C26.0686 22.029 27.9655 14.0831 27.3035 8.89007C27.272 8.33987 27.0659 7.81407 26.715 7.38909C26.3641 6.96412 25.8869 6.6621 25.3526 6.52703C24.9641 6.44875 24.5957 6.29166 24.2703 6.06549C23.9449 5.83931 23.6694 5.54892 23.4606 5.21209C22.7846 4.25809 22.7935 3.4121 21.9895 2.6911C21.4657 2.22955 20.7875 1.98174 20.0895 1.997L12.0955 2.00006Z" fill="#E6E6E6"/>
        <path d="M20.0089 3.5H16L12.7858 15.9188L16 28.5C18 28.5 18 28 20 26.5C20 26.5 26.5 22 26 9.5C26 9.5 26.0024 8.25 25 8C22.5 7.5 21.5 4.5 21.5 4.5C21.368 4.16593 21 3.5 20.0089 3.5Z" fill="#AEDDFF"/>
        <path d="M12.0186 3.5H16.0275V28.5C14.0275 28.5 14.0275 28 12.0275 26.5C12.0275 26.5 5.52747 22 6.02747 9.5C6.02747 9.5 6.02505 8.25 7.02747 8C9.52747 7.5 10.5275 4.5 10.5275 4.5C10.6594 4.16593 11.0275 3.5 12.0186 3.5Z" fill="#00A6ED"/>
      </g>
    </g>
    <rect id="ITEM_2_TEXT_BG" x="1250.0" y="266.0" width="468.0" height="226.0" rx="22" fill="var(--panel)" fill-opacity="0.94" stroke="var(--primary-text)" stroke-opacity="0.12" stroke-width="1.5"/>
    <rect id="COMPARISON_COLUMNS_ART_PANEL_SHEEN_2" x="1250.0" y="266.0" width="468.0" height="226.0" rx="16" fill="var(--accent-3)" opacity="0.82" fill-opacity="0.15" stroke="none"/>
    <text id="ITEM_2_HEAD" x="1484.0" y="282.0" text-anchor="middle" font-size="32" font-weight="800" fill="var(--primary-text)" data-bg-id="ITEM_2_TEXT_BG" fill-opacity="1.0" stroke="none" style="font-size: 30px; font-family: Inter, Segoe UI, Kalam, Roboto, Helvetica, Arial, sans-serif; font-weight: 700; letter-spacing:-0.4px;" data-final-font-size="30">
      <tspan x="1484.0" dy="40.49px">Deflection Move</tspan>
    </text>
    <rect id="ITEM_2_HEAD_FRAME" x="1284" y="282" width="400" height="52" fill="none"/>
    <text id="ITEM_2_BODY" x="1484.0" y="340.0" text-anchor="middle" font-size="19" fill="var(--primary-text)" data-bg-id="ITEM_2_TEXT_BG" style="font-size: 26px; font-family: Inter, Segoe UI, Kalam, Roboto, Helvetica, Arial, sans-serif; font-weight: 400;" data-final-font-size="26">
      <tspan x="1484.0" dy="42.57px">Respondent counters with their own</tspan>
      <tspan x="1484.0" dy="29.90px">similar wrongdoing</tspan>
    </text>
    <rect id="ITEM_2_BODY_FRAME" x="1270" y="340" width="428" height="136" fill="none"/>
  </g>
  <g filter="url(#svg723bcc13-soft-shadow)">
    <rect id="ITEM_3_BG" x="150" y="610" width="470" height="270" rx="26" fill="var(--panel)" fill-opacity="0.97" stroke="var(--accent-3)" stroke-width="3"/>
    <rect x="150" y="610" width="470" height="16" rx="8" fill="var(--accent-3)" fill-opacity="0.55"/>
    <rect x="280" y="646" width="260" height="26" rx="13" fill="var(--accent-3)" fill-opacity="0.12"/>
    <circle id="ITEM_3_PAD" cx="228" cy="692" r="46" fill="var(--icon-pad-bg)" opacity="0.95" fill-opacity="0.9" stroke-width="2" stroke="var(--primary-text)"/>
    <circle id="ITEM_3_PAD_INNER" cx="228" cy="692" r="35.88" fill="var(--accent-4)" fill-opacity="0.22"/>
    <circle cx="228" cy="692" r="37" fill="none" stroke="var(--accent-3)" stroke-width="3" stroke-dasharray="6 4"/>
    <g id="ITEM_3_ICON" transform="translate(194, 658)" data-icon-size="68" stroke-dasharray="6 4">
      <g transform="translate(-13.840000000000003,-13.840000000000003) scale(0.37375)" vector-effect="non-scaling-stroke" stroke-width="2.53" stroke-linecap="round" stroke-linejoin="round" stroke-opacity="1.0">
        <path d="M162.35,138.35a8,8,0,0,1,2.46-13l46.41-17.82a8,8,0,0,0-.71-14.85L50.44,40.41a8,8,0,0,0-10,10L92.68,210.51a8,8,0,0,0,14.85.71l17.82-46.41a8,8,0,0,1,13-2.46l51.31,51.31a8,8,0,0,0,11.31,0L213.66,201a8,8,0,0,0,0-11.31Z" fill="none" stroke="#f1f5f9" vector-effect="non-scaling-stroke"/>
      </g>
    </g>
    <rect id="ITEM_3_TEXT_BG" x="268.0" y="690.0" width="326.0" height="186.0" rx="22" fill="var(--panel)" fill-opacity="0.94" stroke="var(--primary-text)" stroke-opacity="0.12" stroke-width="1.5"/>
    <rect id="COMPARISON_COLUMNS_ART_PANEL_SHEEN_3" x="268.0" y="690.0" width="326.0" height="186.0" rx="16" fill="var(--accent-4)" opacity="0.82" fill-opacity="0.15" stroke="none"/>
    <text id="ITEM_3_HEAD" x="431.0" y="706.0" text-anchor="middle" font-size="28" font-weight="800" fill="var(--primary-text)" data-bg-id="ITEM_3_TEXT_BG" fill-opacity="1.0" stroke="none" style="font-size: 30px; font-family: Inter, Segoe UI, Kalam, Roboto, Helvetica, Arial, sans-serif; font-weight: 700; letter-spacing:-0.4px;" data-final-font-size="30">
      <tspan x="431.0" dy="38.01px">Subject Shift</tspan>
    </text>
    <rect id="ITEM_3_HEAD_FRAME" x="296" y="706" width="270" height="48" fill="none"/>
    <text id="ITEM_3_BODY" x="431.0" y="754.0" text-anchor="middle" font-size="18" fill="var(--primary-text)" data-bg-id="ITEM_3_TEXT_BG" style="font-size: 26px; font-family: Inter, Segoe UI, Kalam, Roboto, Helvetica, Arial, sans-serif; font-weight: 400;" data-final-font-size="26">
      <tspan x="431.0" dy="31.63px">Discussion moves away</tspan>
      <tspan x="431.0" dy="29.90px">from the original issue</tspan>
      <tspan x="431.0" dy="29.90px">entirely</tspan>
    </text>
    <rect id="ITEM_3_BODY_FRAME" x="286" y="754" width="290" height="116" fill="none"/>
  </g>
  <g filter="url(#svg723bcc13-soft-shadow)">
    <rect id="ITEM_4_BG" x="725" y="610" width="470" height="270" rx="26" fill="var(--panel)" fill-opacity="0.97" stroke="var(--accent-4)" stroke-width="3"/>
    <rect x="725" y="610" width="470" height="16" rx="8" fill="var(--accent-4)" fill-opacity="0.55"/>
    <rect x="855" y="646" width="260" height="26" rx="13" fill="var(--accent-4)" fill-opacity="0.12"/>
    <circle id="ITEM_4_PAD" cx="803" cy="692" r="46" fill="var(--icon-pad-bg)" opacity="0.95" fill-opacity="0.9" stroke-width="2" stroke="var(--primary-text)"/>
    <circle id="ITEM_4_PAD_INNER" cx="803" cy="692" r="35.88" fill="var(--accent-5)" fill-opacity="0.22"/>
    <circle cx="803" cy="692" r="37" fill="none" stroke="var(--accent-4)" stroke-width="3" stroke-dasharray="6 4"/>
    <g id="ITEM_4_ICON" transform="translate(769, 658)" data-icon-size="68" stroke-dasharray="6 4">
      <g transform="translate(-7.966785714285718,-7.005714285714289) scale(2.562857142857143)">
        <path d="M25.87 17.9C25.17 16.82 25.17 15.49 25.87 14.42C26.36 13.67 26.65 12.77 26.65 11.8C26.65 9.70005 25.02 7.87005 22.92 7.26005C21.97 6.98005 21.27 6.23005 20.94 5.30005C20.3 3.50005 18.47 1.99005 16.35 2.00005C14.32 2.01005 12.64 3.51005 11.92 5.26005C11.56 6.13005 10.82 6.84005 9.9 7.02005C7.63 7.48005 6 9.58005 6 11.74C6 12.71 6.29 13.6 6.78 14.36C7.48 15.44 7.48 16.77 6.78 17.84C6.29 18.59 6 19.49 6 20.46C6 22.62 7.5 24.7201 9.67 25.1901C10.55 25.3801 11.3 26.04 11.62 26.88C12.31 28.7 14.06 30 16.13 30C18.19 30 19.95 28.7 20.64 26.88C20.97 26.01 21.73 25.35 22.64 25.15C24.96 24.65 26.65 22.67 26.65 20.51C26.64 19.55 26.36 18.65 25.87 17.9Z" fill="#F9C23C"/>
        <path d="M21.8603 10.05C20.6379 7.24441 18.6122 5.41003 16.3201 5.41003C12.5866 5.41003 9.56006 10.2767 9.56006 16.28C9.56006 18.1786 9.86278 19.9636 10.3948 21.5168L18.4667 18.6608L21.8603 10.05Z" fill="#26EAFC"/>
        <path d="M16.32 27.15C20.05 27.15 23.08 22.28 23.08 16.28C23.08 13.96 22.63 11.81 21.86 10.05L10.4 21.51C11.55 24.87 13.77 27.15 16.32 27.15Z" fill="#B4F6FC"/>
      </g>
    </g>
    <rect id="ITEM_4_TEXT_BG" x="843.0" y="690.0" width="326.0" height="186.0" rx="22" fill="var(--panel)" fill-opacity="0.94" stroke="var(--primary-text)" stroke-opacity="0.12" stroke-width="1.5"/>
    <rect id="COMPARISON_COLUMNS_ART_PANEL_SHEEN_4" x="843.0" y="690.0" width="326.0" height="186.0" rx="16" fill="var(--accent-5)" opacity="0.82" fill-opacity="0.15" stroke="none"/>
    <text id="ITEM_4_HEAD" x="1006.0" y="706.0" text-anchor="middle" font-size="28" font-weight="800" fill="var(--primary-text)" data-bg-id="ITEM_4_TEXT_BG" fill-opacity="1.0" stroke="none" style="font-size: 30px; font-family: Inter, Segoe UI, Kalam, Roboto, Helvetica, Arial, sans-serif; font-weight: 700; letter-spacing:-0.4px;" data-final-font-size="30">
      <tspan x="1006.0" dy="38.01px">Accountability Block</tspan>
    </text>
    <rect id="ITEM_4_HEAD_FRAME" x="871" y="706" width="270" height="48" fill="none"/>
    <text id="ITEM_4_BODY" x="1006.0" y="754.0" text-anchor="middle" font-size="18" fill="var(--primary-text)" data-bg-id="ITEM_4_TEXT_BG" style="font-size: 26px; font-family: Inter, Segoe UI, Kalam, Roboto, Helvetica, Arial, sans-serif; font-weight: 400;" data-final-font-size="26">
      <tspan x="1006.0" dy="37.61px">Original critic must now</tspan>
      <tspan x="1006.0" dy="29.90px">defend their own character</tspan>
    </text>
    <rect id="ITEM_4_BODY_FRAME" x="861" y="754" width="290" height="116" fill="none"/>
  </g>
  <g filter="url(#svg723bcc13-soft-shadow)">
    <rect id="ITEM_5_BG" x="1300" y="610" width="470" height="270" rx="26" fill="var(--panel)" fill-opacity="0.97" stroke="var(--accent-5)" stroke-width="3"/>
    <rect x="1300" y="610" width="470" height="16" rx="8" fill="var(--accent-5)" fill-opacity="0.55"/>
    <rect x="1430" y="646" width="260" height="26" rx="13" fill="var(--accent-5)" fill-opacity="0.12"/>
    <circle id="ITEM_5_PAD" cx="1378" cy="692" r="46" fill="var(--icon-pad-bg)" opacity="0.95" fill-opacity="0.9" stroke-width="2" stroke="var(--primary-text)"/>
    <circle id="ITEM_5_PAD_INNER" cx="1378" cy="692" r="35.88" fill="var(--accent-6)" fill-opacity="0.22"/>
    <circle cx="1378" cy="692" r="37" fill="none" stroke="var(--accent-5)" stroke-width="3" stroke-dasharray="6 4"/>
    <g id="ITEM_5_ICON" transform="translate(1344, 658)" data-icon-size="68" stroke-dasharray="6 4">
      <g transform="translate(-7.005714285714289,-11.811071428571436) scale(2.562857142857143)">
        <path d="M16.4063 5.86579C13.7196 5.86579 12.6138 8.38265 12.5642 10.6875H11.6562C7.71325 10.6875 4.386 13.3238 3.34101 16.93C3.24997 16.9043 3.15393 16.8906 3.05469 16.8906C2.4722 16.8906 2 17.3628 2 17.9453C2 18.4103 2.30089 18.805 2.71858 18.9453C2.30089 19.0856 2 19.4803 2 19.9453C2 20.5278 2.4722 21 3.05469 21C3.08932 21 3.12355 20.9983 3.15732 20.9951C3.92819 24.986 7.44024 28 11.6563 28H13.4398C13.476 28.965 13.9493 29.9973 15.071 29.9973H17.2755C17.3817 30.0155 17.5836 29.9508 17.5411 29.5463C17.4984 29.1401 17.31 28.3105 16.3079 28H16.3438C20.7284 28 24.3516 24.7401 24.9219 20.5117V24.688C24.9219 26.9377 29.8438 29.3129 29.8438 27.1254V22.6252C29.8438 21.42 27.8051 19.365 26.5403 19.3439C27.8051 19.3227 29.8438 17.2678 29.8438 16.0625V11.5623C29.8438 9.37484 24.9219 11.75 24.9219 13.9998V18.1758C24.4203 14.4568 21.5569 11.4869 17.8911 10.8254C21.509 10.5504 22.1007 8.05045 22.2188 6.92694C22.3188 5.97513 21.8438 5.82292 21.5938 5.86579H16.4063Z" fill="#00A6ED"/>
        <path d="M11.7261 13.8039C11.9035 13.5922 12.2189 13.5644 12.4305 13.7418C15.4796 16.2969 15.6411 20.7905 12.4726 24.1405C12.2829 24.3411 11.9664 24.3499 11.7658 24.1601C11.5652 23.9704 11.5564 23.6539 11.7461 23.4533C14.5777 20.4595 14.3329 16.6406 11.7882 14.5082C11.5766 14.3309 11.5488 14.0155 11.7261 13.8039Z" fill="#0074BA"/>
        <path d="M9.07812 17.5C9.07812 17.8365 8.8053 18.1094 8.46875 18.1094C8.1322 18.1094 7.85938 17.8365 7.85938 17.5C7.85938 17.1635 8.1322 16.8906 8.46875 16.8906C8.8053 16.8906 9.07812 17.1635 9.07812 17.5Z" fill="#1C1C1C"/>
      </g>
    </g>
    <rect id="ITEM_5_TEXT_BG" x="1418.0" y="690.0" width="326.0" height="186.0" rx="22" fill="var(--panel)" fill-opacity="0.94" stroke="var(--primary-text)" stroke-opacity="0.12" stroke-width="1.5"/>
    <rect id="COMPARISON_COLUMNS_ART_PANEL_SHEEN_5" x="1418.0" y="690.0" width="326.0" height="186.0" rx="16" fill="var(--accent-6)" opacity="0.82" fill-opacity="0.15" stroke="none"/>
    <text id="ITEM_5_HEAD" x="1581.0" y="706.0" text-anchor="middle" font-size="28" font-weight="800" fill="var(--primary-text)" data-bg-id="ITEM_5_TEXT_BG" fill-opacity="1.0" stroke="none" style="font-size: 30px; font-family: Inter, Segoe UI, Kalam, Roboto, Helvetica, Arial, sans-serif; font-weight: 700; letter-spacing:-0.4px;" data-final-font-size="30">
      <tspan x="1581.0" dy="38.01px">Red Herring Risk</tspan>
    </text>
    <rect id="ITEM_5_HEAD_FRAME" x="1446" y="706" width="270" height="48" fill="none"/>
    <text id="ITEM_5_BODY" x="1581.0" y="754.0" text-anchor="middle" font-size="18" fill="var(--primary-text)" data-bg-id="ITEM_5_TEXT_BG" style="font-size: 26px; font-family: Inter, Segoe UI, Kalam, Roboto, Helvetica, Arial, sans-serif; font-weight: 400;" data-final-font-size="26">
      <tspan x="1581.0" dy="37.61px">Emotional balance changes</tspan>
      <tspan x="1581.0" dy="29.90px">before facts are tested</tspan>
    </text>
    <rect id="ITEM_5_BODY_FRAME" x="1436" y="754" width="290" height="116" fill="none"/>
  </g>
</svg>
