<?xml version='1.0' encoding='utf-8'?>
<svg xmlns="http://www.w3.org/2000/svg" width="1920" height="1080" viewBox="0 0 1920 1080" data-theme="dark">
  <style>
        @font-face {
            font-family: 'Inter';
            src: url('assets/fonts/Inter-Regular.ttf') format('truetype');
            font-weight: 400;
            font-style: normal;
            font-display: swap;
        }
        @font-face {
            font-family: 'Inter';
            src: url('assets/fonts/Inter-Bold.ttf') format('truetype');
            font-weight: 600;
            font-style: normal;
            font-display: swap;
        }
        @font-face {
            font-family: 'Inter';
            src: url('assets/fonts/Inter-Bold.ttf') format('truetype');
            font-weight: 800;
            font-style: normal;
            font-display: swap;
        }
        
:root {
    --background: #0f172a;
    --panel: #1e293b;
    --primary-text: #f1f5f9;
    --muted-text: #94a3b8;
    --inverse-text: #0f172a;
    --border: #334155;
    --shadow-color: #000000;
    --icon-pad-bg: #1e293b;
    --art-glow: #7dd3fc;
    --art-glow-opacity: 0.18;
    --art-sheen: #ffffff;
    --art-sheen-opacity: 0.18;
    --art-shadow: #000000;
    --art-shadow-opacity: 0.28;
    --art-muted-line: #64748b;
    --art-panel-tint: #1e293b;
    --font-family: 'Inter', 'Segoe UI', 'Kalam', Roboto, Helvetica, Arial, sans-serif;
    --radius-xl: 16px;
    --font-family-headline: 'Inter', 'Segoe UI', 'Kalam', Roboto, Helvetica, Arial, sans-serif;
    --font-family-body: 'Inter', 'Segoe UI', 'Kalam', Roboto, Helvetica, Arial, sans-serif;
    --font-heading: 'Inter', 'Segoe UI', 'Kalam', Roboto, Helvetica, Arial, sans-serif;
    --font-body: 'Inter', 'Segoe UI', 'Kalam', Roboto, Helvetica, Arial, sans-serif;
    --font-size-h1: 56px;
    --font-size-h2: 40px;
    --font-size-h3: 28px;
    --font-size-body: 24px;
    --font-size-caption: 18px;
    --secondary-text: var(--muted-text);
    --panel-border: var(--border);
    --font-weight-normal: 400;
    --font-weight-medium: 500;
    --font-weight-semibold: 600;
    --font-weight-bold: 700;
    --spacing-gutter-pct: 0.07;
    --spacing-top-pct: 0.15;
    --spacing-bottom-pct: 0.07;
    --spacing-title-y-pct: 0.055;
    --accent-1: #fbbf24;
    --accent-2: #fb923c;
    --accent-3: #f87171;
    --accent-4: #a3e635;
    --accent-5: #4ade80;
    --accent-6: #d4a574;
}
:root[data-theme="dark"] {
    --background: #0f172a;
    --panel: #1e293b;
    --primary-text: #f1f5f9;
    --muted-text: #94a3b8;
    --inverse-text: #0f172a;
    --border: #334155;
    --shadow-color: #000000;
    --icon-pad-bg: #1e293b;
    --art-glow: #7dd3fc;
    --art-glow-opacity: 0.18;
    --art-sheen: #ffffff;
    --art-sheen-opacity: 0.18;
    --art-shadow: #000000;
    --art-shadow-opacity: 0.28;
    --art-muted-line: #64748b;
    --art-panel-tint: #1e293b;
    --accent-1: #fbbf24;
    --accent-2: #fb923c;
    --accent-3: #f87171;
    --accent-4: #a3e635;
    --accent-5: #4ade80;
    --accent-6: #d4a574;
}
:root[data-theme="light"] {
    --background: #f8fafc;
    --panel: #ffffff;
    --primary-text: #0f172a;
    --muted-text: #64748b;
    --inverse-text: #ffffff;
    --border: #e2e8f0;
    --shadow-color: #000000;
    --icon-pad-bg: #1e293b;
    --art-glow: #0891b2;
    --art-glow-opacity: 0.10;
    --art-sheen: #ffffff;
    --art-sheen-opacity: 0.34;
    --art-shadow: #0f172a;
    --art-shadow-opacity: 0.14;
    --art-muted-line: #94a3b8;
    --art-panel-tint: #f1f5f9;
    --accent-1: #d97706;
    --accent-2: #ea580c;
    --accent-3: #dc2626;
    --accent-4: #65a30d;
    --accent-5: #16a34a;
    --accent-6: #92400e;
}</style>
  <rect x="0" y="0" width="1.92E+3" height="1.08E+3" fill="#252a34" stroke="none" id="programmatic_background"/>
  <line id="HEADER_DECOR" x1="960.0" x2="1080.0" y1="135.0" y2="135.0" stroke="var(--accent-1)" stroke-width="6" stroke-linecap="round"/>
  <defs>
    <pattern id="svg8eb204ea-napkin-hatch" patternUnits="userSpaceOnUse" width="12" height="12">
      <path d="M -3 12 L 12 -3 M 0 15 L 15 0" fill="none" stroke="var(--primary-text)" stroke-width="1" stroke-opacity="0.05"/>
    </pattern>
    <filter id="svg8eb204ea-shadow" x="-30%" y="-30%" width="160%" height="160%">
      <feDropShadow dx="0" dy="2" stdDeviation="3" flood-color="#000000" flood-opacity="0.08"/>
      <feDropShadow dx="0" dy="6" stdDeviation="10" flood-color="#000000" flood-opacity="0.12"/>
    </filter>
    <radialGradient id="svg8eb204ea-universal-edge-vignette" cx="50%" cy="50%" r="72%">
      <stop offset="0%" stop-color="var(--background)" stop-opacity="0"/>
      <stop offset="72%" stop-color="var(--background)" stop-opacity="0.12"/>
      <stop offset="100%" stop-color="var(--primary-text)" stop-opacity="0.08"/>
    </radialGradient>
    <linearGradient id="svg8eb204ea-universal-surface-sheen" x1="0%" y1="0%" x2="100%" y2="100%">
      <stop offset="0%" stop-color="var(--art-sheen)" stop-opacity="var(--art-sheen-opacity)"/>
      <stop offset="46%" stop-color="var(--art-sheen)" stop-opacity="0.035"/>
      <stop offset="100%" stop-color="var(--art-panel-tint)" stop-opacity="0.14"/>
    </linearGradient>
    <radialGradient id="svg8eb204ea-universal-icon-aura" cx="50%" cy="42%" r="64%">
      <stop offset="0%" stop-color="var(--art-glow)" stop-opacity="var(--art-glow-opacity)"/>
      <stop offset="100%" stop-color="var(--background)" stop-opacity="0"/>
    </radialGradient>
    <linearGradient id="svg8eb204ea-fact-card-sheen" x1="0%" y1="0%" x2="100%" y2="100%">
      <stop offset="0%" stop-color="var(--inverse-text)" stop-opacity="0.18"/>
      <stop offset="54%" stop-color="var(--inverse-text)" stop-opacity="0.04"/>
      <stop offset="100%" stop-color="var(--background)" stop-opacity="0.14"/>
    </linearGradient>
    <radialGradient id="svg8eb204ea-fact-icon-glow" cx="50%" cy="42%" r="62%">
      <stop offset="0%" stop-color="var(--inverse-text)" stop-opacity="0.22"/>
      <stop offset="100%" stop-color="var(--background)" stop-opacity="0"/>
    </radialGradient>
    <filter id="svg8eb204ea-text-glow" x="-20%" y="-20%" width="140%" height="140%">
      <feDropShadow dx="0" dy="0" stdDeviation="2" flood-color="#000000" flood-opacity="0.4"/>
    </filter>
    <marker id="svg8eb204ea-arrowhead" markerWidth="10" markerHeight="7" refX="9" refY="3.5" orient="auto" markerUnits="strokeWidth">
      <polygon points="0 0, 10 3.5, 0 7" fill="var(--muted-text)" opacity="0.6"/>
    </marker>
  </defs>
  <rect width="100%" height="100%" fill="var(--background)" id="CANVAS_BG"/>
  <rect width="100%" height="100%" fill="url(#svg8eb204ea-napkin-hatch)"/>
  <rect id="UNIVERSAL_EDGE_VIGNETTE" width="100%" height="100%" fill="url(#svg8eb204ea-universal-edge-vignette)" opacity="0.62"/>
  <line x1="960" y1="178" x2="960" y2="986" stroke="var(--muted-text)" stroke-width="5" stroke-opacity="0.10" stroke-linecap="round"/>
  <path d="M 360 178 C 620 152 1300 152 1560 178" fill="none" stroke="var(--primary-text)" stroke-width="2" stroke-opacity="0.12" stroke-linecap="round"/>
  <text id="TITLE" x="960.0" y="59" text-anchor="middle" font-weight="800" font-size="72" fill="#f1f5f9" style="font-size: 60px; font-family: Inter, Segoe UI, Kalam, Roboto, Helvetica, Arial, sans-serif; font-weight: 700; letter-spacing:-1.2px;" data-final-font-size="60">
    <tspan x="960.0" dy="68.00px">Hollow Man Defined</tspan>
  </text>
  <rect id="TITLE_FRAME" x="134" y="59" width="1652" height="103" fill="none"/>
  <g transform="translate(960.0, 250.0)">
    <rect id="ITEM_1_BG" x="-600" y="-72" width="1200" height="176" rx="24" fill="var(--accent-2)" stroke="var(--accent-1)" filter="url(#svg8eb204ea-shadow)" stroke-width="3" fill-opacity="0.4"/>
    <g transform="translate(-480.0, 0.0)">
      <circle r="60" fill="var(--background)" opacity="0.3"/>
      <circle id="ITEM_1_PAD" cx="0" cy="0" r="50" fill="var(--icon-pad-bg)" stroke="var(--primary-text)" opacity="0.9" fill-opacity="0.9" stroke-width="2"/>
      <circle id="ITEM_1_PAD_INNER" cx="0" cy="0" r="39.00" fill="var(--accent-2)" fill-opacity="0.22"/>
      <circle cx="0" cy="0" r="40" fill="none" stroke="var(--accent-1)" stroke-width="3" stroke-dasharray="6 4"/>
      <g id="ITEM_1_ICON" transform="translate(-39, -39)" data-icon-size="78" stroke-dasharray="6 4">
        <g transform="translate(-3.305084745762712,-3.305084745762712) scale(3.5254237288135593)" vector-effect="non-scaling-stroke" stroke-width="2.65" stroke-linecap="round" stroke-linejoin="round" stroke-opacity="1.0">
          <path d="m2 2 20 20" vector-effect="non-scaling-stroke" fill="none" stroke="#f1f5f9"/>
          <path d="M8.35 2.69A10 10 0 0 1 21.3 15.65" vector-effect="non-scaling-stroke" fill="none" stroke="#f1f5f9"/>
          <path d="M19.08 19.08A10 10 0 1 1 4.92 4.92" vector-effect="non-scaling-stroke" fill="none" stroke="#f1f5f9"/>
        </g>
      </g>
    </g>
    <g transform="translate(-330, -36)">
      <text id="ITEM_1_HEAD" text-anchor="start" font-weight="bold" font-size="34" fill="var(--primary-text)" x="0.0" y="-10.0" data-bg-id="ITEM_1_BG" fill-opacity="1.0" stroke="none" style="font-size: 30px; font-family: Inter, Segoe UI, Kalam, Roboto, Helvetica, Arial, sans-serif; font-weight: 700; letter-spacing:-0.4px;" data-final-font-size="30">
        <tspan x="0.0" dy="30.25px">Vague Opponent</tspan>
      </text>
      <rect id="ITEM_1_HEAD_FRAME" x="0" y="-10" width="846" height="44" fill="none"/>
      <text id="ITEM_1_BODY" text-anchor="start" font-size="24" fill="var(--primary-text)" x="0.0" y="24.0" data-bg-id="ITEM_1_BG" style="font-size: 26px; font-family: Inter, Segoe UI, Kalam, Roboto, Helvetica, Arial, sans-serif; font-weight: 400;" data-final-font-size="26">
        <tspan x="0.0" dy="31.62px">Speaker attacks unnamed or shadowy groups</tspan>
      </text>
      <rect id="ITEM_1_BODY_FRAME" x="0" y="24" width="846" height="84" fill="none"/>
    </g>
  </g>
  <g transform="translate(960.0, 465.0)">
    <rect id="ITEM_2_BG" x="-600" y="-72" width="1200" height="176" rx="24" fill="var(--accent-3)" stroke="var(--accent-2)" filter="url(#svg8eb204ea-shadow)" stroke-width="3" fill-opacity="0.4"/>
    <g transform="translate(-480.0, 0.0)">
      <circle r="60" fill="var(--background)" opacity="0.3"/>
      <circle id="ITEM_2_PAD" cx="0" cy="0" r="50" fill="var(--icon-pad-bg)" stroke="var(--primary-text)" opacity="0.9" fill-opacity="0.9" stroke-width="2"/>
      <circle id="ITEM_2_PAD_INNER" cx="0" cy="0" r="39.00" fill="var(--accent-3)" fill-opacity="0.22"/>
      <circle cx="0" cy="0" r="40" fill="none" stroke="var(--accent-1)" stroke-width="3" stroke-dasharray="6 4"/>
      <g id="ITEM_2_ICON" transform="translate(-39, -39)" data-icon-size="78" stroke-dasharray="6 4">
        <g transform="translate(-4.034482758620692,-4.0344827586206895) scale(3.586206896551724)" vector-effect="non-scaling-stroke" stroke-width="2.65" stroke-linecap="round" stroke-linejoin="round" stroke-opacity="1.0">
          <path d="M4 21.4V2.6C4 2.26863 4.26863 2 4.6 2H16.2515C16.4106 2 16.5632 2.06321 16.6757 2.17574L19.8243 5.32426C19.9368 5.43679 20 5.5894 20 5.74853V21.4C20 21.7314 19.7314 22 19.4 22H4.6C4.26863 22 4 21.7314 4 21.4Z" stroke="#f1f5f9" vector-effect="non-scaling-stroke" fill="none"/>
          <path d="M16 2V5.4C16 5.73137 16.2686 6 16.6 6H20" stroke="#f1f5f9" vector-effect="non-scaling-stroke" fill="none"/>
        </g>
      </g>
    </g>
    <g transform="translate(-330, -36)">
      <text id="ITEM_2_HEAD" text-anchor="start" font-weight="bold" font-size="34" fill="var(--primary-text)" x="0.0" y="-10.0" data-bg-id="ITEM_2_BG" fill-opacity="1.0" stroke="none" style="font-size: 30px; font-family: Inter, Segoe UI, Kalam, Roboto, Helvetica, Arial, sans-serif; font-weight: 700; letter-spacing:-0.4px;" data-final-font-size="30">
        <tspan x="0.0" dy="30.25px">No Source</tspan>
      </text>
      <rect id="ITEM_2_HEAD_FRAME" x="0" y="-10" width="846" height="44" fill="none"/>
      <text id="ITEM_2_BODY" text-anchor="start" font-size="24" fill="var(--primary-text)" x="0.0" y="24.0" data-bg-id="ITEM_2_BG" style="font-size: 26px; font-family: Inter, Segoe UI, Kalam, Roboto, Helvetica, Arial, sans-serif; font-weight: 400;" data-final-font-size="26">
        <tspan x="0.0" dy="31.62px">No specific person or publication identified</tspan>
      </text>
      <rect id="ITEM_2_BODY_FRAME" x="0" y="24" width="846" height="84" fill="none"/>
    </g>
  </g>
  <g transform="translate(960.0, 660.0)">
    <rect id="ITEM_3_BG" x="-600" y="-72" width="1200" height="176" rx="24" fill="var(--accent-4)" stroke="var(--accent-3)" filter="url(#svg8eb204ea-shadow)" stroke-width="3" fill-opacity="0.4"/>
    <g transform="translate(-480.0, 0.0)">
      <circle r="60" fill="var(--background)" opacity="0.3"/>
      <circle id="ITEM_3_PAD" cx="0" cy="0" r="50" fill="var(--icon-pad-bg)" stroke="var(--primary-text)" opacity="0.9" fill-opacity="0.9" stroke-width="2"/>
      <circle id="ITEM_3_PAD_INNER" cx="0" cy="0" r="39.00" fill="var(--accent-4)" fill-opacity="0.22"/>
      <circle cx="0" cy="0" r="40" fill="none" stroke="var(--accent-2)" stroke-width="3" stroke-dasharray="6 4"/>
      <g id="ITEM_3_ICON" transform="translate(-39, -39)" data-icon-size="78" stroke-dasharray="6 4">
        <g transform="translate(-3.575,-2.6) scale(0.1625)" vector-effect="non-scaling-stroke" fill="#f1f5f9" fill-opacity="1.0" stroke="none">
          <path fill="#f1f5f9" d="M304.482 19.73c-19.18.347-39.96 9.122-56.498 25.66c-22.422 22.423-30.554 52.63-22.783 76.09c-65.956-30.317-59.724-32.208-123.327-73.015c-10.072-6.462-19.445-9.412-27.816-9.805c-13.953-.655-25.126 5.793-32.135 14.926c-11.214 14.613-12.37 36.164 10.95 54.418c31.027 24.286 58.825 41.022 79.015 59.45c20.19 18.43 32.658 40.606 28.355 70.046v.002c-3.16 21.608-13.68 37.998-26.46 51.47c-12.78 13.47-27.77 24.476-41.46 36.676c-27.38 24.4-50.32 51.77-45.052 114.266c3.327 39.483 34.167 55.107 59.666 52.365c12.75-1.372 23.497-7.357 29.394-17.49c5.897-10.13 7.69-25.42-1.037-47.733h-.002c-7.592-19.416 3.128-40.832 18.368-57.09c15.24-16.26 36.807-28.817 58.852-24.998c6.175 1.07 11.446 4.722 15.056 9.157s5.982 9.604 7.955 15.234c3.948 11.262 6.26 24.69 9.117 38.58c5.71 27.777 13.67 55.973 33.068 68.474c37.964 24.468 75.254 17.395 91.902.44c8.325-8.475 11.916-18.84 9.127-31.14c-2.788-12.297-12.694-27.158-34.267-41.845c-23.664-16.11-32.657-48.282-33.846-80.118c-1.188-31.836 5.29-64.08 20.13-84.033c6.878-9.25 17.534-13.128 29.645-17.417c12.11-4.29 26.21-8.48 40.753-14.694c29.086-12.426 59.652-32.204 79.14-76.788c17.078-39.068 3.357-64.292-15.298-73.474c-9.327-4.592-20.128-5.156-30.435-.65c-10.308 4.505-20.442 14.216-27.45 31.78c-13.14 32.932-39.195 51.68-70.414 56.41c-8.096 1.225-16.527 1.586-25.223 1.163c7.505-4.07 14.71-9.39 21.25-15.93c29.4-29.4 34.27-72.202 10.87-95.6c-10.236-10.237-24.187-15.063-39.105-14.79zm-51.925 131.79q1.261-.03 2.525.007c4.49.13 8.978.873 13.393 2.305c17.656 5.73 29.82 21.068 35.47 39.566c5.65 18.5 5.292 40.598-1.843 62.635c-7.136 22.038-19.795 40.148-35.213 51.815c-15.42 11.666-34.268 16.947-51.925 11.218c-17.657-5.73-29.82-21.067-35.47-39.566s-5.29-40.6 1.845-62.637c7.135-22.038 19.795-40.148 35.213-51.814c10.84-8.204 23.378-13.25 36.004-13.53zm.21 18.65c-8.075.183-16.6 3.475-24.937 9.783c-11.857 8.972-22.66 23.984-28.71 42.666c-6.048 18.68-6.098 37.188-1.75 51.42c4.346 14.234 12.583 23.75 23.362 27.25c10.78 3.497 23.022.627 34.88-8.345c11.857-8.972 22.66-23.986 28.708-42.668c6.05-18.68 6.097-37.187 1.75-51.42c-4.346-14.232-12.583-23.75-23.363-27.248a29.6 29.6 0 0 0-8.33-1.434a31 31 0 0 0-1.61-.006zm-7.25 27.643q.618-.016 1.24.003a22.3 22.3 0 0 1 6.62 1.204c8.777 3.022 14.27 10.818 16.682 19.2c2.41 8.383 2.197 17.916-.7 27.415c-2.9 9.498-8.015 17.453-14.762 22.87c-6.748 5.42-15.967 8.365-24.744 5.343c-8.778-3.023-14.27-10.82-16.682-19.202s-2.2-17.917.7-27.416c2.897-9.498 8.01-17.453 14.76-22.87c4.743-3.81 10.71-6.398 16.886-6.548zm.46 18.63a5.2 5.2 0 0 0-1.563.192c-1.137.307-2.475 1.006-4.082 2.297c-3.215 2.58-6.668 7.466-8.586 13.752c-1.917 6.285-1.854 12.49-.615 16.795c1.24 4.303 3.2 6.144 4.808 6.698s3.743.337 6.958-2.244s6.67-7.467 8.588-13.752s1.854-12.49.616-16.793c-1.24-4.306-3.2-6.147-4.81-6.7c-.4-.14-.837-.23-1.313-.247z" vector-effect="non-scaling-stroke" stroke="none"/>
        </g>
      </g>
    </g>
    <g transform="translate(-330, -36)">
      <text id="ITEM_3_HEAD" text-anchor="start" font-weight="bold" font-size="34" fill="var(--primary-text)" x="0.0" y="-10.0" data-bg-id="ITEM_3_BG" fill-opacity="1.0" stroke="none" style="font-size: 30px; font-family: Inter, Segoe UI, Kalam, Roboto, Helvetica, Arial, sans-serif; font-weight: 700; letter-spacing:-0.4px;" data-final-font-size="30">
        <tspan x="0.0" dy="30.25px">Invented Target</tspan>
      </text>
      <rect id="ITEM_3_HEAD_FRAME" x="0" y="-10" width="846" height="44" fill="none"/>
      <text id="ITEM_3_BODY" text-anchor="start" font-size="24" fill="var(--primary-text)" x="0.0" y="24.0" data-bg-id="ITEM_3_BG" style="font-size: 26px; font-family: Inter, Segoe UI, Kalam, Roboto, Helvetica, Arial, sans-serif; font-weight: 400;" data-final-font-size="26">
        <tspan x="0.0" dy="31.62px">Argument targets a position that may not exist</tspan>
      </text>
      <rect id="ITEM_3_BODY_FRAME" x="0" y="24" width="846" height="84" fill="none"/>
    </g>
  </g>
  <g transform="translate(960.0, 855.0)">
    <rect id="ITEM_4_BG" x="-600" y="-72" width="1200" height="176" rx="24" fill="var(--accent-5)" stroke="var(--accent-4)" filter="url(#svg8eb204ea-shadow)" stroke-width="3" fill-opacity="0.4"/>
    <g transform="translate(-480.0, 0.0)">
      <circle r="60" fill="var(--background)" opacity="0.3"/>
      <circle id="ITEM_4_PAD" cx="0" cy="0" r="50" fill="var(--icon-pad-bg)" stroke="var(--primary-text)" opacity="0.9" fill-opacity="0.9" stroke-width="2"/>
      <circle id="ITEM_4_PAD_INNER" cx="0" cy="0" r="39.00" fill="var(--accent-5)" fill-opacity="0.22"/>
      <circle cx="0" cy="0" r="40" fill="none" stroke="var(--accent-3)" stroke-width="3" stroke-dasharray="6 4"/>
      <g id="ITEM_4_ICON" transform="translate(-39, -39)" data-icon-size="78" stroke-dasharray="6 4">
        <g transform="translate(-4.526785714285712,-5.571428571428571) scale(2.7857142857142856)">
          <path d="M10.5208 7.52114C10.0012 5.7093 8.1239 4.65179 6.30748 5.15196C6.27354 5.1604 6.20545 5.17748 6.14394 5.19799C3.65095 6.02898 3.45292 9.41201 5.68876 10.6483L10.6585 13.3981C11.0772 13.6298 11.6044 13.4782 11.8361 13.0595C12.0678 12.6408 11.9161 12.1135 11.4974 11.8819L6.52712 9.13168C5.54516 8.58886 5.70443 7.17631 6.68631 6.84385L6.69246 6.84216C6.70347 6.83922 6.7167 6.8359 6.73807 6.83055C6.74577 6.82863 6.75344 6.8266 6.76109 6.82446C7.66072 6.57309 8.59583 7.09488 8.85505 7.99882C8.98695 8.45881 9.46678 8.72477 9.92677 8.59286C10.3868 8.46095 10.6527 7.98112 10.5208 7.52114Z" fill="#D3883E"/>
          <path d="M22.4608 7.99882C22.72 7.09488 23.6552 6.57309 24.5548 6.82446C24.5624 6.8266 24.5701 6.82863 24.5778 6.83055C24.5992 6.8359 24.6124 6.83922 24.6234 6.84216L24.6296 6.84385C25.6114 7.17631 25.7704 8.58902 24.7884 9.13185L19.8184 11.8819C19.3997 12.1135 19.2481 12.6408 19.4798 13.0595C19.7115 13.4782 20.2387 13.6298 20.6574 13.3981L25.6274 10.6481C27.8633 9.41184 27.6649 6.02898 25.1719 5.19799C25.1104 5.17748 25.0423 5.1604 25.0084 5.15196C23.192 4.65179 21.3146 5.7093 20.7951 7.52114C20.6632 7.98112 20.9291 8.46095 21.3891 8.59286C21.8491 8.72477 22.3289 8.45881 22.4608 7.99882Z" fill="#D3883E"/>
          <path d="M17.328 17.51V13.29H13.9879V17.51C13.9879 18.25 13.658 18.96 13.088 19.43L11.168 21.03H20.1479L18.228 19.43C17.658 18.95 17.328 18.25 17.328 17.51Z" fill="#D3883E"/>
          <path d="M15.658 16.54C11.808 16.54 8.68799 13.42 8.68799 9.56999V2.70999C8.68799 2.31999 9.00798 2 9.39798 2H21.928C22.318 2 22.638 2.31999 22.638 2.70999V9.56999C22.638 13.42 19.518 16.54 15.658 16.54Z" fill="#FFB02E"/>
          <path d="M22.7923 21.03H8.19719C7.42737 21.03 6.77355 21.54 6.62592 22.25L5.01245 29.34C4.93863 29.67 5.20226 29.98 5.56081 29.98H25.4392C25.7977 29.98 26.0614 29.67 25.9876 29.34L24.3741 22.25C24.2159 21.54 23.5621 21.03 22.7923 21.03Z" fill="#6D4534"/>
          <path d="M18.383 23.96H12.617C12.2817 23.96 12.004 24.24 12.004 24.6V26.41C12.004 26.76 12.2721 27.05 12.617 27.05H18.383C18.7183 27.05 18.996 26.77 18.996 26.41V24.6C18.996 24.25 18.7278 23.96 18.383 23.96Z" fill="#FFB02E"/>
        </g>
      </g>
    </g>
    <g transform="translate(-330, -36)">
      <text id="ITEM_4_HEAD" text-anchor="start" font-weight="bold" font-size="34" fill="var(--primary-text)" x="0.0" y="-10.0" data-bg-id="ITEM_4_BG" fill-opacity="1.0" stroke="none" style="font-size: 30px; font-family: Inter, Segoe UI, Kalam, Roboto, Helvetica, Arial, sans-serif; font-weight: 700; letter-spacing:-0.4px;" data-final-font-size="30">
        <tspan x="0.0" dy="30.25px">False Victory</tspan>
      </text>
      <rect id="ITEM_4_HEAD_FRAME" x="0" y="-10" width="846" height="44" fill="none"/>
      <text id="ITEM_4_BODY" text-anchor="start" font-size="24" fill="var(--primary-text)" x="0.0" y="24.0" data-bg-id="ITEM_4_BG" style="font-size: 26px; font-family: Inter, Segoe UI, Kalam, Roboto, Helvetica, Arial, sans-serif; font-weight: 400;" data-final-font-size="26">
        <tspan x="0.0" dy="31.62px">Speaker wins debate without engaging real views</tspan>
      </text>
      <rect id="ITEM_4_BODY_FRAME" x="0" y="24" width="846" height="84" fill="none"/>
    </g>
  </g>
</svg>
