<?xml version='1.0' encoding='utf-8'?>
<svg xmlns="http://www.w3.org/2000/svg" width="1920" height="1080" viewBox="0 0 1920 1080" data-theme="dark">
  <style>
        @font-face {
            font-family: 'Inter';
            src: url('assets/fonts/Inter-Regular.ttf') format('truetype');
            font-weight: 400;
            font-style: normal;
            font-display: swap;
        }
        @font-face {
            font-family: 'Inter';
            src: url('assets/fonts/Inter-Bold.ttf') format('truetype');
            font-weight: 600;
            font-style: normal;
            font-display: swap;
        }
        @font-face {
            font-family: 'Inter';
            src: url('assets/fonts/Inter-Bold.ttf') format('truetype');
            font-weight: 800;
            font-style: normal;
            font-display: swap;
        }
        
:root {
    --background: #0f172a;
    --panel: #1e293b;
    --primary-text: #f1f5f9;
    --muted-text: #94a3b8;
    --inverse-text: #0f172a;
    --border: #334155;
    --shadow-color: #000000;
    --icon-pad-bg: #1e293b;
    --art-glow: #7dd3fc;
    --art-glow-opacity: 0.18;
    --art-sheen: #ffffff;
    --art-sheen-opacity: 0.18;
    --art-shadow: #000000;
    --art-shadow-opacity: 0.28;
    --art-muted-line: #64748b;
    --art-panel-tint: #1e293b;
    --font-family: 'Inter', 'Segoe UI', 'Kalam', Roboto, Helvetica, Arial, sans-serif;
    --radius-xl: 16px;
    --font-family-headline: 'Inter', 'Segoe UI', 'Kalam', Roboto, Helvetica, Arial, sans-serif;
    --font-family-body: 'Inter', 'Segoe UI', 'Kalam', Roboto, Helvetica, Arial, sans-serif;
    --font-heading: 'Inter', 'Segoe UI', 'Kalam', Roboto, Helvetica, Arial, sans-serif;
    --font-body: 'Inter', 'Segoe UI', 'Kalam', Roboto, Helvetica, Arial, sans-serif;
    --font-size-h1: 56px;
    --font-size-h2: 40px;
    --font-size-h3: 28px;
    --font-size-body: 24px;
    --font-size-caption: 18px;
    --secondary-text: var(--muted-text);
    --panel-border: var(--border);
    --font-weight-normal: 400;
    --font-weight-medium: 500;
    --font-weight-semibold: 600;
    --font-weight-bold: 700;
    --spacing-gutter-pct: 0.07;
    --spacing-top-pct: 0.15;
    --spacing-bottom-pct: 0.07;
    --spacing-title-y-pct: 0.055;
    --accent-1: #22d3ee;
    --accent-2: #38bdf8;
    --accent-3: #60a5fa;
    --accent-4: #818cf8;
    --accent-5: #a78bfa;
    --accent-6: #2dd4bf;
}
:root[data-theme="dark"] {
    --background: #0f172a;
    --panel: #1e293b;
    --primary-text: #f1f5f9;
    --muted-text: #94a3b8;
    --inverse-text: #0f172a;
    --border: #334155;
    --shadow-color: #000000;
    --icon-pad-bg: #1e293b;
    --art-glow: #7dd3fc;
    --art-glow-opacity: 0.18;
    --art-sheen: #ffffff;
    --art-sheen-opacity: 0.18;
    --art-shadow: #000000;
    --art-shadow-opacity: 0.28;
    --art-muted-line: #64748b;
    --art-panel-tint: #1e293b;
    --accent-1: #22d3ee;
    --accent-2: #38bdf8;
    --accent-3: #60a5fa;
    --accent-4: #818cf8;
    --accent-5: #a78bfa;
    --accent-6: #2dd4bf;
}
:root[data-theme="light"] {
    --background: #f8fafc;
    --panel: #ffffff;
    --primary-text: #0f172a;
    --muted-text: #64748b;
    --inverse-text: #ffffff;
    --border: #e2e8f0;
    --shadow-color: #000000;
    --icon-pad-bg: #1e293b;
    --art-glow: #0891b2;
    --art-glow-opacity: 0.10;
    --art-sheen: #ffffff;
    --art-sheen-opacity: 0.34;
    --art-shadow: #0f172a;
    --art-shadow-opacity: 0.14;
    --art-muted-line: #94a3b8;
    --art-panel-tint: #f1f5f9;
    --accent-1: #0891b2;
    --accent-2: #0284c7;
    --accent-3: #2563eb;
    --accent-4: #4f46e5;
    --accent-5: #7c3aed;
    --accent-6: #0d9488;
}</style>
  <rect x="0" y="0" width="1.92E+3" height="1.08E+3" fill="#252a34" stroke="none" id="programmatic_background"/>
  <line id="HEADER_DECOR" x1="960.0" x2="1080.0" y1="75.0" y2="75.0" stroke="var(--accent-1)" stroke-width="6" stroke-linecap="round"/>
  <defs>
    <filter id="svg68409301-neon-glow" x="-50%" y="-50%" width="200%" height="200%">
      <feGaussianBlur stdDeviation="6" result="blur"/>
      <feComposite in="SourceGraphic" in2="blur" operator="over"/>
    </filter>
    <radialGradient id="svg68409301-universal-edge-vignette" cx="50%" cy="50%" r="72%">
      <stop offset="0%" stop-color="var(--background)" stop-opacity="0"/>
      <stop offset="72%" stop-color="var(--background)" stop-opacity="0.12"/>
      <stop offset="100%" stop-color="var(--primary-text)" stop-opacity="0.08"/>
    </radialGradient>
    <linearGradient id="svg68409301-universal-surface-sheen" x1="0%" y1="0%" x2="100%" y2="100%">
      <stop offset="0%" stop-color="var(--art-sheen)" stop-opacity="var(--art-sheen-opacity)"/>
      <stop offset="46%" stop-color="var(--art-sheen)" stop-opacity="0.035"/>
      <stop offset="100%" stop-color="var(--art-panel-tint)" stop-opacity="0.14"/>
    </linearGradient>
    <radialGradient id="svg68409301-universal-icon-aura" cx="50%" cy="42%" r="64%">
      <stop offset="0%" stop-color="var(--art-glow)" stop-opacity="var(--art-glow-opacity)"/>
      <stop offset="100%" stop-color="var(--background)" stop-opacity="0"/>
    </radialGradient>
    <radialGradient id="svg68409301-tree-roots-art-glow" cx="50%" cy="52%" r="68%">
      <stop offset="0%" stop-color="var(--inverse-text)" stop-opacity="0.14"/>
      <stop offset="100%" stop-color="var(--background)" stop-opacity="0"/>
    </radialGradient>
    <linearGradient id="svg68409301-tree-roots-art-sheen" x1="16%" y1="0%" x2="86%" y2="100%">
      <stop offset="0%" stop-color="var(--inverse-text)" stop-opacity="0.22"/>
      <stop offset="52%" stop-color="var(--inverse-text)" stop-opacity="0.035"/>
      <stop offset="100%" stop-color="var(--background)" stop-opacity="0.14"/>
    </linearGradient>
    <filter id="svg68409301-text-glow" x="-20%" y="-20%" width="140%" height="140%">
      <feDropShadow dx="0" dy="0" stdDeviation="2" flood-color="#000000" flood-opacity="0.4"/>
    </filter>
    <filter id="svg68409301-shadow" x="-30%" y="-30%" width="160%" height="160%">
      <feDropShadow dx="0" dy="2" stdDeviation="3" flood-color="#000000" flood-opacity="0.08"/>
      <feDropShadow dx="0" dy="6" stdDeviation="10" flood-color="#000000" flood-opacity="0.12"/>
    </filter>
    <marker id="svg68409301-arrowhead" markerWidth="10" markerHeight="7" refX="9" refY="3.5" orient="auto" markerUnits="strokeWidth">
      <polygon points="0 0, 10 3.5, 0 7" fill="var(--muted-text)" opacity="0.6"/>
    </marker>
  </defs>
  <rect width="100%" height="100%" fill="var(--background)" id="CANVAS_BG"/>
  <ellipse id="TREE-ROOTS_ART_GLOW" cx="960" cy="600" rx="720" ry="390" fill="url(#svg68409301-tree-roots-art-glow)" opacity="0.90"/>
  <rect id="UNIVERSAL_EDGE_VIGNETTE" width="100%" height="100%" fill="url(#svg68409301-universal-edge-vignette)" opacity="0.62"/>
  <!-- Subtle dirt/background texture behind roots -->
  <rect x="0" y="280" width="1920" height="800" fill="var(--primary-text)" opacity="0.04"/>
  <g transform="translate(0, 0)">
    <!-- Ground Line -->
    <path d="M 0 280 L 1920 280" fill="none" stroke="var(--primary-text)" stroke-width="4" stroke-dasharray="10 20" opacity="0.3"/>
    <!-- Tree Canopy -->
    <g id="TREE_CANOPY" opacity="0.58">
      <circle cx="900.0" cy="210" r="70" fill="var(--panel)" stroke="var(--primary-text)" stroke-width="2"/>
      <circle cx="1020.0" cy="210" r="70" fill="var(--panel)" stroke="var(--primary-text)" stroke-width="2"/>
      <circle cx="960.0" cy="190" r="80" fill="var(--panel)" stroke="var(--primary-text)" stroke-width="2"/>
      <circle cx="960.0" cy="160" r="40" fill="var(--panel)" stroke="var(--primary-text)" stroke-width="2"/>
    </g>
    <!-- Tree Trunk -->
    <path d="M 910.0 280 C 910.0 235, 895.0 190, 900.0 140 L 1020.0 140 C 1025.0 190, 1010.0 235, 1010.0 280 Z" fill="var(--panel)" stroke="var(--primary-text)" stroke-width="2" filter="url(#svg68409301-neon-glow)"/>
    <!-- Trunk abstract rings -->
    <ellipse cx="960.0" cy="242" rx="34.0" ry="44" fill="none" stroke="var(--background)" stroke-width="6" opacity="0.3"/>
    <rect id="TITLE_FRAME" x="660.0" y="20" width="600" height="80" fill="none"/>
    <text id="TITLE" x="960.0" y="59" font-size="34" font-weight="900" fill="#f1f5f9" text-anchor="middle" alignment-baseline="middle" style="font-size: 60px; font-family: Inter, Segoe UI, Kalam, Roboto, Helvetica, Arial, sans-serif; font-weight: 700; letter-spacing:-1.2px;" data-final-font-size="60">
      <tspan x="960.0" dy="68.00px">Kelley Drye: Claim Types</tspan>
    </text>
  </g>
  <g transform="translate(0, 0)">
    <!-- Root Core Line -->
    <path d="M 900.0 280 C 812.0 400.0, 548.0 420.0, 460.0 480" fill="none" stroke="var(--accent-1)" stroke-width="10" stroke-linecap="round" filter="url(#svg68409301-neon-glow)" opacity="0.9"/>
    <path d="M 900.0 280 C 812.0 400.0, 548.0 420.0, 460.0 480" fill="none" stroke="var(--background)" stroke-width="4" stroke-linecap="round"/>
    <!-- Secondary stylistic root tendril -->
    <path d="M 900.0 280 C 804.0 376.0, 516.0 392.0, 420.0 440" fill="none" stroke="var(--accent-1)" stroke-width="3" filter="url(#svg68409301-neon-glow)" opacity="0.45"/>
    <!-- Deep Root Terminal -->
    <circle cx="460.0" cy="480" r="53" fill="none" stroke="var(--accent-1)" stroke-width="2" stroke-dasharray="8 4" opacity="0.6"/>
    <circle cx="460.0" cy="480" r="45" fill="var(--panel)" stroke="var(--accent-1)" stroke-width="4" filter="url(#svg68409301-neon-glow)"/>
    <circle id="ITEM_1_PAD" cx="460.00" cy="480.00" r="40.00" fill="var(--icon-pad-bg)" stroke="var(--primary-text)" stroke-width="2" opacity="0.9"/>
    <circle id="ITEM_1_PAD_INNER" cx="460.00" cy="480.00" r="31.20" fill="var(--accent-1)" fill-opacity="0.22"/>
    <g id="ITEM_1_ICON" transform="translate(435.0, 455)" data-icon-size="50" stroke-dasharray="6 4">
      <g transform="translate(-11.977777777777783,-11.977777777777781) scale(3.081481481481482)" vector-effect="non-scaling-stroke" stroke-width="2.31" stroke-linecap="round" stroke-linejoin="round" stroke-opacity="1.0">
        <path d="M5 8h14l-.621 2.485a2 2 0 0 1 -1.94 1.515h-8.878a2 2 0 0 1 -1.94 -1.515l-.621 -2.485z" vector-effect="non-scaling-stroke" fill="none" stroke="#f1f5f9"/>
        <path d="M7 8v-2a3 3 0 0 1 3 -3" vector-effect="non-scaling-stroke" fill="none" stroke="#f1f5f9"/>
        <path d="M8 12l1 9" vector-effect="non-scaling-stroke" fill="none" stroke="#f1f5f9"/>
        <path d="M16 12l-1 9" vector-effect="non-scaling-stroke" fill="none" stroke="#f1f5f9"/>
        <path d="M7 21h10" vector-effect="non-scaling-stroke" fill="none" stroke="#f1f5f9"/>
      </g>
    </g>
    <rect id="ITEM_1_TEXT_BG" x="-3.0" y="414.0" width="416.0" height="222.0" rx="22" fill="var(--panel)" fill-opacity="0.97" stroke="var(--primary-text)" stroke-opacity="0.22" stroke-width="2.2"/>
    <text id="ITEM_1_HEAD" data-bg-id="ITEM_1_TEXT_BG" x="395.0" y="430.0" font-weight="bold" font-size="25" fill="var(--accent-1)" text-anchor="end" fill-opacity="1.0" stroke="none" style="font-size: 30px; font-family: Inter, Segoe UI, Kalam, Roboto, Helvetica, Arial, sans-serif; font-weight: 700; letter-spacing:-0.4px;" data-final-font-size="30">
      <tspan x="395.0" dy="28.25px">Number One</tspan>
    </text>
    <rect id="ITEM_1_HEAD_FRAME" x="75.0" y="430" width="320" height="40" fill="none"/>
    <text id="ITEM_1_BODY" data-bg-id="ITEM_1_TEXT_BG" x="395.0" y="500.0" font-size="17" fill="var(--primary-text)" text-anchor="end" style="font-size: 26px; font-family: Inter, Segoe UI, Kalam, Roboto, Helvetica, Arial, sans-serif; font-weight: 400;" data-final-font-size="26">
      <tspan x="395.0" dy="32.84px">Ad states top ranking</tspan>
      <tspan x="395.0" dy="29.90px">in category</tspan>
    </text>
    <rect id="ITEM_1_BODY_FRAME" x="15" y="500" width="380" height="120" fill="none"/>
  </g>
  <g transform="translate(0, 0)">
    <!-- Root Core Line -->
    <path d="M 930.0 280 C 886.0 550.0, 754.0 595.0, 710.0 730" fill="none" stroke="var(--accent-2)" stroke-width="10" stroke-linecap="round" filter="url(#svg68409301-neon-glow)" opacity="0.9"/>
    <path d="M 930.0 280 C 886.0 550.0, 754.0 595.0, 710.0 730" fill="none" stroke="var(--background)" stroke-width="4" stroke-linecap="round"/>
    <!-- Secondary stylistic root tendril -->
    <path d="M 930.0 280 C 878.0 526.0, 722.0 567.0, 670.0 690" fill="none" stroke="var(--accent-2)" stroke-width="3" filter="url(#svg68409301-neon-glow)" opacity="0.45"/>
    <!-- Deep Root Terminal -->
    <circle cx="710.0" cy="730" r="53" fill="none" stroke="var(--accent-2)" stroke-width="2" stroke-dasharray="8 4" opacity="0.6"/>
    <circle cx="710.0" cy="730" r="45" fill="var(--panel)" stroke="var(--accent-2)" stroke-width="4" filter="url(#svg68409301-neon-glow)"/>
    <circle id="ITEM_2_PAD" cx="710.00" cy="730.00" r="40.00" fill="var(--icon-pad-bg)" stroke="var(--primary-text)" stroke-width="2" opacity="0.9"/>
    <circle id="ITEM_2_PAD_INNER" cx="710.00" cy="730.00" r="31.20" fill="var(--accent-2)" fill-opacity="0.22"/>
    <g id="ITEM_2_ICON" transform="translate(685.0, 705)" data-icon-size="50" stroke-dasharray="6 4">
      <g transform="translate(-11.771428571428574,-10.65714285714286) scale(2.2285714285714286)">
        <path d="M25.05 3.105L24.03 2.165C23.79 1.945 23.42 1.945 23.18 2.165L22.16 3.105C22.02 3.235 21.79 3.235 21.65 3.105L20.63 2.165C20.39 1.945 20.02 1.945 19.78 2.165L18.76 3.105C18.62 3.235 18.39 3.235 18.25 3.105L17.23 2.165C16.99 1.945 16.62 1.945 16.38 2.165L15.35 3.105C15.21 3.235 14.98 3.235 14.84 3.105L13.82 2.165C13.58 1.945 13.21 1.945 12.97 2.165L11.95 3.105C11.81 3.235 11.58 3.235 11.44 3.105L10.42 2.155C10.26 2.005 10 2.125 10 2.345V3.775V29.995H24.61C25.93 29.995 27 28.925 27 27.605V3.765V2.345C27 2.125 26.74 2.015 26.58 2.165L25.55 3.115C25.41 3.235 25.19 3.235 25.05 3.105Z" fill="#D3D3D3"/>
        <path d="M12.25 8H24.75C24.89 8 25 7.89 25 7.75V6.25C25 6.11 24.89 6 24.75 6H12.25C12.11 6 12 6.11 12 6.25V7.75C12 7.89 12.11 8 12.25 8ZM12.5 10C12.2239 10 12 10.2239 12 10.5C12 10.7761 12.2239 11 12.5 11H20.5C20.7761 11 21 10.7761 21 10.5C21 10.2239 20.7761 10 20.5 10H12.5ZM12.5 13C12.2239 13 12 13.2239 12 13.5C12 13.7761 12.2239 14 12.5 14H20.5C20.7761 14 21 13.7761 21 13.5C21 13.2239 20.7761 13 20.5 13H12.5ZM12 16.5C12 16.2239 12.2239 16 12.5 16H20.5C20.7761 16 21 16.2239 21 16.5C21 16.7761 20.7761 17 20.5 17H12.5C12.2239 17 12 16.7761 12 16.5ZM12.5 19C12.2239 19 12 19.2239 12 19.5C12 19.7761 12.2239 20 12.5 20H20.5C20.7761 20 21 19.7761 21 19.5C21 19.2239 20.7761 19 20.5 19H12.5ZM12 22.5C12 22.2239 12.2239 22 12.5 22H20.5C20.7761 22 21 22.2239 21 22.5C21 22.7761 20.7761 23 20.5 23H12.5C12.2239 23 12 22.7761 12 22.5ZM22.5 10C22.2239 10 22 10.2239 22 10.5C22 10.7761 22.2239 11 22.5 11H24.5C24.7761 11 25 10.7761 25 10.5C25 10.2239 24.7761 10 24.5 10H22.5ZM22 13.5C22 13.2239 22.2239 13 22.5 13H24.5C24.7761 13 25 13.2239 25 13.5C25 13.7761 24.7761 14 24.5 14H22.5C22.2239 14 22 13.7761 22 13.5ZM22.5 16C22.2239 16 22 16.2239 22 16.5C22 16.7761 22.2239 17 22.5 17H24.5C24.7761 17 25 16.7761 25 16.5C25 16.2239 24.7761 16 24.5 16H22.5ZM22 19.5C22 19.2239 22.2239 19 22.5 19H24.5C24.7761 19 25 19.2239 25 19.5C25 19.7761 24.7761 20 24.5 20H22.5C22.2239 20 22 19.7761 22 19.5ZM22.5 22C22.2239 22 22 22.2239 22 22.5C22 22.7761 22.2239 23 22.5 23H24.5C24.7761 23 25 22.7761 25 22.5C25 22.2239 24.7761 22 24.5 22H22.5ZM22 27.495V25.935C22 25.415 21.58 24.995 21.06 24.995H6.94C6.42 24.995 6 25.415 6 25.935V27.495C6 28.875 7.12 29.995 8.5 29.995H24.5C23.12 29.995 22 28.875 22 27.495Z" fill="#9B9B9B"/>
      </g>
    </g>
    <rect id="ITEM_2_TEXT_BG" x="247.0" y="664.0" width="416.0" height="222.0" rx="22" fill="var(--panel)" fill-opacity="0.97" stroke="var(--primary-text)" stroke-opacity="0.22" stroke-width="2.2"/>
    <text id="ITEM_2_HEAD" data-bg-id="ITEM_2_TEXT_BG" x="645.0" y="680.0" font-weight="bold" font-size="25" fill="var(--accent-2)" text-anchor="end" fill-opacity="1.0" stroke="none" style="font-size: 30px; font-family: Inter, Segoe UI, Kalam, Roboto, Helvetica, Arial, sans-serif; font-weight: 700; letter-spacing:-0.4px;" data-final-font-size="30">
      <tspan x="645.0" dy="28.25px">Leading Brand</tspan>
    </text>
    <rect id="ITEM_2_HEAD_FRAME" x="325.0" y="680" width="320" height="40" fill="none"/>
    <text id="ITEM_2_BODY" data-bg-id="ITEM_2_TEXT_BG" x="645.0" y="750.0" font-size="17" fill="var(--primary-text)" text-anchor="end" style="font-size: 26px; font-family: Inter, Segoe UI, Kalam, Roboto, Helvetica, Arial, sans-serif; font-weight: 400;" data-final-font-size="26">
      <tspan x="645.0" dy="32.84px">Signage marks dominant</tspan>
      <tspan x="645.0" dy="29.90px">market leader</tspan>
    </text>
    <rect id="ITEM_2_BODY_FRAME" x="265" y="750" width="380" height="120" fill="none"/>
  </g>
  <g transform="translate(0, 0)">
    <!-- Root Core Line -->
    <path d="M 960.0 280 C 960.0 670.0, 960.0 735.0, 960.0 930" fill="none" stroke="var(--accent-3)" stroke-width="10" stroke-linecap="round" filter="url(#svg68409301-neon-glow)" opacity="0.9"/>
    <path d="M 960.0 280 C 960.0 670.0, 960.0 735.0, 960.0 930" fill="none" stroke="var(--background)" stroke-width="4" stroke-linecap="round"/>
    <!-- Secondary stylistic root tendril -->
    <path d="M 960.0 280 C 952.0 646.0, 928.0 707.0, 920.0 890" fill="none" stroke="var(--accent-3)" stroke-width="3" filter="url(#svg68409301-neon-glow)" opacity="0.45"/>
    <!-- Deep Root Terminal -->
    <circle cx="960.0" cy="930" r="53" fill="none" stroke="var(--accent-3)" stroke-width="2" stroke-dasharray="8 4" opacity="0.6"/>
    <circle cx="960.0" cy="930" r="45" fill="var(--panel)" stroke="var(--accent-3)" stroke-width="4" filter="url(#svg68409301-neon-glow)"/>
    <circle id="ITEM_3_PAD" cx="960.00" cy="930.00" r="40.00" fill="var(--icon-pad-bg)" stroke="var(--primary-text)" stroke-width="2" opacity="0.9"/>
    <circle id="ITEM_3_PAD_INNER" cx="960.00" cy="930.00" r="31.20" fill="var(--accent-3)" fill-opacity="0.22"/>
    <g id="ITEM_3_ICON" transform="translate(935.0, 905)" data-icon-size="50" stroke-dasharray="6 4">
      <g transform="translate(-10.65714285714286,-11.771428571428572) scale(2.2285714285714286)">
        <path d="M7.17 21.7566L22.94 23L23.9824 19H24.5182C25.8896 19 27.0125 20.3403 27.0125 21.8852V22C27.0125 23.6075 25.8089 25 24.3779 25H3C2.45344 25 2 25.382 2 25.9562C2 26.5303 2.44718 27 2.99374 27H24.4188C26.943 27 29 24.7557 29 22V21.8852C29 19.1921 26.9926 17 24.5182 17H24.5035L24.5066 16.9884C24.7278 16.9397 24.9 16.7438 24.9 16.5192V16.4808C24.9 16.337 24.8344 16.2097 24.7322 16.1223L27.37 6H5.2C3.44 6 2 7.43242 2 9.25278L2.52 17.7478C2.67 20.2645 5.04 21.5875 7.17 21.7566ZM21.6161 16H20V12H22.6046L21.6161 16ZM22.8518 11H20V8.00704L21.95 8.00936C22.79 8.00936 23.4 8.78525 23.2 9.59099L22.8518 11ZM19 8.00586V11H14.62V8.00065L19 8.00586ZM13.62 7.99946V11H9.02002V7.994L13.62 7.99946ZM8.02002 7.99281V11H4.11139L4 9.1931C4 8.52662 4.54 7.98947 5.21 7.98947L8.02002 7.99281ZM4.17303 12H8.02002V16H4.41961L4.17303 12ZM4.48126 17H8.02002V19.8306L7.34 19.7771C6 19.6676 4.6 18.9017 4.52 17.6284L4.48126 17ZM9.02002 19.9094V17H13.62V20.2716L9.02002 19.9094ZM14.62 20.3504V17H19V20.62C19 20.6457 19.002 20.671 19.0058 20.6957L14.62 20.3504ZM20 20.6002V17H21.3689L20.69 19.7472C20.5958 20.1344 20.3361 20.4392 20 20.6002ZM14.62 12H19V16H14.62V12ZM9.02002 12H13.62V16H9.02002V12Z" fill="#9B9B9B"/>
        <path d="M22.8035 23.9707C22.2419 23.839 21.8923 23.2818 22.03 22.7448L26.9145 3.76832C27.0522 3.23134 27.635 2.897 28.1965 3.02871C28.7581 3.16042 29.1077 3.71766 28.97 4.25463L24.0855 23.2311C23.9478 23.7782 23.3756 24.1024 22.8035 23.9707Z" fill="#BEBEBE"/>
        <path d="M27 5H29C29.55 5 30 4.55 30 4C30 3.45 29.55 3 29 3H27C26.45 3 26 3.45 26 4C26 4.55 26.45 5 27 5Z" fill="#0084CE"/>
        <path d="M5.5 30C6.32843 30 7 29.3284 7 28.5C7 27.6716 6.32843 27 5.5 27C4.67157 27 4 27.6716 4 28.5C4 29.3284 4.67157 30 5.5 30Z" fill="#0084CE"/>
        <path d="M23.5 30C24.3284 30 25 29.3284 25 28.5C25 27.6716 24.3284 27 23.5 27C22.6716 27 22 27.6716 22 28.5C22 29.3284 22.6716 30 23.5 30Z" fill="#0084CE"/>
      </g>
    </g>
    <rect id="ITEM_3_TEXT_BG" x="497.0" y="864.0" width="416.0" height="222.0" rx="22" fill="var(--panel)" fill-opacity="0.97" stroke="var(--primary-text)" stroke-opacity="0.22" stroke-width="2.2"/>
    <text id="ITEM_3_HEAD" data-bg-id="ITEM_3_TEXT_BG" x="895.0" y="880.0" font-weight="bold" font-size="25" fill="var(--accent-3)" text-anchor="end" fill-opacity="1.0" stroke="none" style="font-size: 30px; font-family: Inter, Segoe UI, Kalam, Roboto, Helvetica, Arial, sans-serif; font-weight: 700; letter-spacing:-0.4px;" data-final-font-size="30">
      <tspan x="895.0" dy="28.25px">Most Customers</tspan>
    </text>
    <rect id="ITEM_3_HEAD_FRAME" x="575.0" y="880" width="320" height="40" fill="none"/>
    <text id="ITEM_3_BODY" data-bg-id="ITEM_3_TEXT_BG" x="895.0" y="950.0" font-size="17" fill="var(--primary-text)" text-anchor="end" style="font-size: 26px; font-family: Inter, Segoe UI, Kalam, Roboto, Helvetica, Arial, sans-serif; font-weight: 400;" data-final-font-size="26">
      <tspan x="895.0" dy="32.84px">Counter tallies largest</tspan>
      <tspan x="895.0" dy="29.90px">shopper base</tspan>
    </text>
    <rect id="ITEM_3_BODY_FRAME" x="515" y="950" width="380" height="120" fill="none"/>
  </g>
  <g transform="translate(0, 0)">
    <!-- Root Core Line -->
    <path d="M 990.0 280 C 1034.0 550.0, 1166.0 595.0, 1210.0 730" fill="none" stroke="var(--accent-4)" stroke-width="10" stroke-linecap="round" filter="url(#svg68409301-neon-glow)" opacity="0.9"/>
    <path d="M 990.0 280 C 1034.0 550.0, 1166.0 595.0, 1210.0 730" fill="none" stroke="var(--background)" stroke-width="4" stroke-linecap="round"/>
    <!-- Secondary stylistic root tendril -->
    <path d="M 990.0 280 C 1042.0 526.0, 1198.0 567.0, 1250.0 690" fill="none" stroke="var(--accent-4)" stroke-width="3" filter="url(#svg68409301-neon-glow)" opacity="0.45"/>
    <!-- Deep Root Terminal -->
    <circle cx="1210.0" cy="730" r="53" fill="none" stroke="var(--accent-4)" stroke-width="2" stroke-dasharray="8 4" opacity="0.6"/>
    <circle cx="1210.0" cy="730" r="45" fill="var(--panel)" stroke="var(--accent-4)" stroke-width="4" filter="url(#svg68409301-neon-glow)"/>
    <circle id="ITEM_4_PAD" cx="1210.00" cy="730.00" r="40.00" fill="var(--icon-pad-bg)" stroke="var(--primary-text)" stroke-width="2" opacity="0.9"/>
    <circle id="ITEM_4_PAD_INNER" cx="1210.00" cy="730.00" r="31.20" fill="var(--accent-4)" fill-opacity="0.22"/>
    <g id="ITEM_4_ICON" transform="translate(1185.0, 705)" data-icon-size="50" stroke-dasharray="6 4">
      <g transform="translate(-11.977777777777781,-8.800000000000004) scale(3.081481481481482)" vector-effect="non-scaling-stroke" stroke-width="2.31" stroke-linecap="round" stroke-linejoin="round" stroke-opacity="1.0">
        <path d="M3 5m0 2a2 2 0 0 1 2 -2h14a2 2 0 0 1 2 2v10a2 2 0 0 1 -2 2h-14a2 2 0 0 1 -2 -2z" vector-effect="non-scaling-stroke" fill="none" stroke="#f1f5f9"/>
        <path d="M12 5v2" vector-effect="non-scaling-stroke" fill="none" stroke="#f1f5f9"/>
        <path d="M12 10v1" vector-effect="non-scaling-stroke" fill="none" stroke="#f1f5f9"/>
        <path d="M12 14v1" vector-effect="non-scaling-stroke" fill="none" stroke="#f1f5f9"/>
        <path d="M12 18v1" vector-effect="non-scaling-stroke" fill="none" stroke="#f1f5f9"/>
        <path d="M7 3v2" vector-effect="non-scaling-stroke" fill="none" stroke="#f1f5f9"/>
        <path d="M17 3v2" vector-effect="non-scaling-stroke" fill="none" stroke="#f1f5f9"/>
        <path d="M15 10.5v3a1.5 1.5 0 0 0 3 0v-3a1.5 1.5 0 0 0 -3 0z" vector-effect="non-scaling-stroke" fill="none" stroke="#f1f5f9"/>
        <path d="M6 9h1.5a1.5 1.5 0 0 1 0 3h-.5h.5a1.5 1.5 0 0 1 0 3h-1.5" vector-effect="non-scaling-stroke" fill="none" stroke="#f1f5f9"/>
      </g>
    </g>
    <rect id="ITEM_4_TEXT_BG" x="1257.0" y="664.0" width="416.0" height="222.0" rx="22" fill="var(--panel)" fill-opacity="0.97" stroke="var(--primary-text)" stroke-opacity="0.22" stroke-width="2.2"/>
    <text id="ITEM_4_HEAD" data-bg-id="ITEM_4_TEXT_BG" x="1275.0" y="680.0" font-weight="bold" font-size="25" fill="var(--accent-4)" text-anchor="start" fill-opacity="1.0" stroke="none" style="font-size: 30px; font-family: Inter, Segoe UI, Kalam, Roboto, Helvetica, Arial, sans-serif; font-weight: 700; letter-spacing:-0.4px;" data-final-font-size="30">
      <tspan x="1275.0" dy="28.25px">Highest Rated</tspan>
    </text>
    <rect id="ITEM_4_HEAD_FRAME" x="1275.0" y="680" width="320" height="40" fill="none"/>
    <text id="ITEM_4_BODY" data-bg-id="ITEM_4_TEXT_BG" x="1275.0" y="750.0" font-size="17" fill="var(--primary-text)" text-anchor="start" style="font-size: 26px; font-family: Inter, Segoe UI, Kalam, Roboto, Helvetica, Arial, sans-serif; font-weight: 400;" data-final-font-size="26">
      <tspan x="1275.0" dy="32.84px">Board displays top</tspan>
      <tspan x="1275.0" dy="29.90px">customer scores</tspan>
    </text>
    <rect id="ITEM_4_BODY_FRAME" x="1275" y="750" width="380" height="120" fill="none"/>
  </g>
  <g transform="translate(0, 0)">
    <!-- Root Core Line -->
    <path d="M 1020.0 280 C 1108.0 400.0, 1372.0 420.0, 1460.0 480" fill="none" stroke="var(--accent-5)" stroke-width="10" stroke-linecap="round" filter="url(#svg68409301-neon-glow)" opacity="0.9"/>
    <path d="M 1020.0 280 C 1108.0 400.0, 1372.0 420.0, 1460.0 480" fill="none" stroke="var(--background)" stroke-width="4" stroke-linecap="round"/>
    <!-- Secondary stylistic root tendril -->
    <path d="M 1020.0 280 C 1116.0 376.0, 1404.0 392.0, 1500.0 440" fill="none" stroke="var(--accent-5)" stroke-width="3" filter="url(#svg68409301-neon-glow)" opacity="0.45"/>
    <!-- Deep Root Terminal -->
    <circle cx="1460.0" cy="480" r="53" fill="none" stroke="var(--accent-5)" stroke-width="2" stroke-dasharray="8 4" opacity="0.6"/>
    <circle cx="1460.0" cy="480" r="45" fill="var(--panel)" stroke="var(--accent-5)" stroke-width="4" filter="url(#svg68409301-neon-glow)"/>
    <circle id="ITEM_5_PAD" cx="1460.00" cy="480.00" r="40.00" fill="var(--icon-pad-bg)" stroke="var(--primary-text)" stroke-width="2" opacity="0.9"/>
    <circle id="ITEM_5_PAD_INNER" cx="1460.00" cy="480.00" r="31.20" fill="var(--accent-5)" fill-opacity="0.22"/>
    <g id="ITEM_5_ICON" transform="translate(1435.0, 455)" data-icon-size="50" stroke-dasharray="6 4">
      <g transform="translate(-16.6,-14.975) scale(3.466666666666667)" vector-effect="non-scaling-stroke" stroke-width="2.31" stroke-linecap="round" stroke-linejoin="round" stroke-opacity="1.0">
        <path d="M17 5h1.5a1.5 1.5 0 0 1 0 3h-.5h.5a1.5 1.5 0 0 1 0 3h-1.5" vector-effect="non-scaling-stroke" fill="none" stroke="#f1f5f9"/>
        <path d="M4 12v6" vector-effect="non-scaling-stroke" fill="none" stroke="#f1f5f9"/>
        <path d="M4 14a2 2 0 0 1 2 -2h.5a2.5 2.5 0 0 1 2.5 2.5v3.5" vector-effect="non-scaling-stroke" fill="none" stroke="#f1f5f9"/>
        <path d="M9 15.5v-1a2.5 2.5 0 1 1 5 0v3.5" vector-effect="non-scaling-stroke" fill="none" stroke="#f1f5f9"/>
      </g>
    </g>
    <rect id="ITEM_5_TEXT_BG" x="1507.0" y="414.0" width="416.0" height="222.0" rx="22" fill="var(--panel)" fill-opacity="0.97" stroke="var(--primary-text)" stroke-opacity="0.22" stroke-width="2.2"/>
    <text id="ITEM_5_HEAD" data-bg-id="ITEM_5_TEXT_BG" x="1525.0" y="430.0" font-weight="bold" font-size="25" fill="var(--accent-5)" text-anchor="start" fill-opacity="1.0" stroke="none" style="font-size: 30px; font-family: Inter, Segoe UI, Kalam, Roboto, Helvetica, Arial, sans-serif; font-weight: 700; letter-spacing:-0.4px;" data-final-font-size="30">
      <tspan x="1525.0" dy="28.25px">Biggest Size</tspan>
    </text>
    <rect id="ITEM_5_HEAD_FRAME" x="1525.0" y="430" width="320" height="40" fill="none"/>
    <text id="ITEM_5_BODY" data-bg-id="ITEM_5_TEXT_BG" x="1525.0" y="500.0" font-size="17" fill="var(--primary-text)" text-anchor="start" style="font-size: 26px; font-family: Inter, Segoe UI, Kalam, Roboto, Helvetica, Arial, sans-serif; font-weight: 400;" data-final-font-size="26">
      <tspan x="1525.0" dy="32.84px">Scale measures largest</tspan>
      <tspan x="1525.0" dy="29.90px">product volume</tspan>
    </text>
    <rect id="ITEM_5_BODY_FRAME" x="1525" y="500" width="380" height="120" fill="none"/>
  </g>
</svg>
